<mxfile host="app.diagrams.net" agent="Mozilla/5.0 (Macintosh; Intel Mac OS X 10_15_7) AppleWebKit/537.36 (KHTML, like Gecko) Chrome/137.0.0.0 Safari/537.36" version="27.1.6">
  <diagram name="Page-1" id="4Ng_v5fxN6EOXuYMJMIh">
    <mxGraphModel dx="5165" dy="3915" grid="1" gridSize="10" guides="1" tooltips="1" connect="1" arrows="1" fold="1" page="1" pageScale="1" pageWidth="850" pageHeight="1100" math="0" shadow="0">
      <root>
        <mxCell id="0" />
        <mxCell id="1" parent="0" />
        <mxCell id="I9zTokaMYXYdYf4xdTNR-86" style="edgeStyle=orthogonalEdgeStyle;rounded=0;orthogonalLoop=1;jettySize=auto;html=1;entryX=0;entryY=0.5;entryDx=0;entryDy=0;" parent="1" source="aaV3_4VG9kTLFOAMbQMQ-1" target="aaV3_4VG9kTLFOAMbQMQ-10" edge="1">
          <mxGeometry relative="1" as="geometry" />
        </mxCell>
        <mxCell id="aaV3_4VG9kTLFOAMbQMQ-1" value="&lt;span&gt;&lt;/span&gt;" style="rounded=0;whiteSpace=wrap;html=1;" parent="1" vertex="1">
          <mxGeometry x="542" y="80" width="630" height="400" as="geometry" />
        </mxCell>
        <mxCell id="aaV3_4VG9kTLFOAMbQMQ-2" value="" style="endArrow=none;html=1;rounded=0;exitX=-0.002;exitY=0.121;exitDx=0;exitDy=0;entryX=0.998;entryY=0.125;entryDx=0;entryDy=0;entryPerimeter=0;exitPerimeter=0;" parent="1" source="aaV3_4VG9kTLFOAMbQMQ-1" target="aaV3_4VG9kTLFOAMbQMQ-1" edge="1">
          <mxGeometry width="50" height="50" relative="1" as="geometry">
            <mxPoint x="832" y="400" as="sourcePoint" />
            <mxPoint x="882" y="350" as="targetPoint" />
          </mxGeometry>
        </mxCell>
        <mxCell id="aaV3_4VG9kTLFOAMbQMQ-3" value="&lt;div style=&quot;text-align: left;&quot;&gt;&lt;span style=&quot;white-space-collapse: preserve; background-color: transparent; color: light-dark(rgb(0, 0, 0), rgb(255, 255, 255));&quot;&gt;&lt;font style=&quot;font-size: 16px;&quot;&gt;&lt;b&gt;LegalSphere&lt;/b&gt;&lt;/font&gt;&lt;/span&gt;&lt;/div&gt;&lt;span&gt;&lt;div style=&quot;text-align: left;&quot;&gt;&lt;span style=&quot;white-space-collapse: preserve; background-color: transparent; color: light-dark(rgb(0, 0, 0), rgb(255, 255, 255));&quot;&gt;&lt;font style=&quot;font-size: 16px;&quot;&gt;&lt;b&gt;Your Rental Agreement friend&lt;/b&gt;&lt;/font&gt;&lt;/span&gt;&lt;/div&gt;&lt;/span&gt;" style="text;html=1;align=center;verticalAlign=middle;whiteSpace=wrap;rounded=0;" parent="1" vertex="1">
          <mxGeometry x="582" y="160" width="140" height="80" as="geometry" />
        </mxCell>
        <mxCell id="aaV3_4VG9kTLFOAMbQMQ-5" value="&lt;b&gt;&amp;nbsp; &amp;nbsp; &amp;nbsp; Preview&lt;/b&gt;&lt;div&gt;&lt;br&gt;&lt;/div&gt;" style="rounded=0;whiteSpace=wrap;html=1;" parent="1" vertex="1">
          <mxGeometry x="797" y="160" width="355" height="230" as="geometry" />
        </mxCell>
        <mxCell id="aaV3_4VG9kTLFOAMbQMQ-6" value="&lt;div style=&quot;text-align: left;&quot;&gt;&lt;font style=&quot;font-size: 9px;&quot;&gt;&lt;span style=&quot;white-space-collapse: preserve;&quot;&gt;LegalSphere is dedicated to simplifying the creation of rental agreements for all Indian states and in multiple languages.&amp;nbsp;It offers a user-friendly platform to generate legally sound rental agreements tailored to specific state laws and regional language preferences&lt;/span&gt;&lt;/font&gt;&lt;/div&gt;" style="text;html=1;align=center;verticalAlign=middle;whiteSpace=wrap;rounded=0;" parent="1" vertex="1">
          <mxGeometry x="582" y="250" width="190" height="80" as="geometry" />
        </mxCell>
        <mxCell id="aaV3_4VG9kTLFOAMbQMQ-9" value="Lets&#39;s Start" style="rounded=1;whiteSpace=wrap;html=1;" parent="1" vertex="1">
          <mxGeometry x="582" y="350" width="180" height="30" as="geometry" />
        </mxCell>
        <mxCell id="I9zTokaMYXYdYf4xdTNR-87" style="edgeStyle=orthogonalEdgeStyle;rounded=0;orthogonalLoop=1;jettySize=auto;html=1;entryX=0;entryY=0.5;entryDx=0;entryDy=0;" parent="1" source="aaV3_4VG9kTLFOAMbQMQ-10" target="aaV3_4VG9kTLFOAMbQMQ-98" edge="1">
          <mxGeometry relative="1" as="geometry" />
        </mxCell>
        <mxCell id="aaV3_4VG9kTLFOAMbQMQ-10" value="&lt;span&gt;&lt;/span&gt;" style="rounded=0;whiteSpace=wrap;html=1;" parent="1" vertex="1">
          <mxGeometry x="1352" y="80" width="630" height="400" as="geometry" />
        </mxCell>
        <mxCell id="aaV3_4VG9kTLFOAMbQMQ-11" value="" style="endArrow=none;html=1;rounded=0;exitX=-0.002;exitY=0.121;exitDx=0;exitDy=0;entryX=0.998;entryY=0.125;entryDx=0;entryDy=0;entryPerimeter=0;exitPerimeter=0;" parent="1" source="aaV3_4VG9kTLFOAMbQMQ-10" target="aaV3_4VG9kTLFOAMbQMQ-10" edge="1">
          <mxGeometry width="50" height="50" relative="1" as="geometry">
            <mxPoint x="1672" y="570" as="sourcePoint" />
            <mxPoint x="1722" y="520" as="targetPoint" />
          </mxGeometry>
        </mxCell>
        <mxCell id="aaV3_4VG9kTLFOAMbQMQ-12" value="&lt;div style=&quot;text-align: left;&quot;&gt;&lt;span style=&quot;font-size: 16px; white-space-collapse: preserve;&quot;&gt;&lt;b&gt;Select your preferred language&lt;/b&gt;&lt;/span&gt;&lt;/div&gt;" style="text;html=1;align=center;verticalAlign=middle;whiteSpace=wrap;rounded=0;" parent="1" vertex="1">
          <mxGeometry x="1577" y="142" width="160" height="80" as="geometry" />
        </mxCell>
        <mxCell id="aaV3_4VG9kTLFOAMbQMQ-15" value="&lt;b&gt;&lt;font style=&quot;font-size: 17px;&quot;&gt;Next 1/10&lt;/font&gt;&lt;/b&gt;" style="rounded=1;whiteSpace=wrap;html=1;" parent="1" vertex="1">
          <mxGeometry x="1577" y="370" width="180" height="30" as="geometry" />
        </mxCell>
        <mxCell id="aaV3_4VG9kTLFOAMbQMQ-16" value="&lt;b&gt;&lt;font style=&quot;font-size: 27px;&quot;&gt;1&lt;/font&gt;&lt;/b&gt;" style="ellipse;whiteSpace=wrap;html=1;aspect=fixed;" parent="1" vertex="1">
          <mxGeometry x="462" y="80" width="40" height="40" as="geometry" />
        </mxCell>
        <mxCell id="aaV3_4VG9kTLFOAMbQMQ-17" value="&lt;b&gt;&lt;font style=&quot;font-size: 27px;&quot;&gt;2&lt;/font&gt;&lt;/b&gt;" style="ellipse;whiteSpace=wrap;html=1;aspect=fixed;" parent="1" vertex="1">
          <mxGeometry x="1272" y="80" width="40" height="40" as="geometry" />
        </mxCell>
        <mxCell id="aaV3_4VG9kTLFOAMbQMQ-18" value="" style="shadow=0;dashed=0;html=1;strokeColor=none;fillColor=#4495D1;labelPosition=center;verticalLabelPosition=bottom;verticalAlign=top;align=center;outlineConnect=0;shape=mxgraph.veeam.globe;" parent="1" vertex="1">
          <mxGeometry x="1577" y="240" width="20" height="20" as="geometry" />
        </mxCell>
        <mxCell id="aaV3_4VG9kTLFOAMbQMQ-21" value="&lt;font style=&quot;font-size: 15px;&quot;&gt;Eng&lt;/font&gt;" style="text;html=1;align=center;verticalAlign=middle;whiteSpace=wrap;rounded=0;" parent="1" vertex="1">
          <mxGeometry x="1607" y="235" width="60" height="30" as="geometry" />
        </mxCell>
        <mxCell id="aaV3_4VG9kTLFOAMbQMQ-22" value="" style="shadow=0;dashed=0;html=1;strokeColor=none;fillColor=#4495D1;labelPosition=center;verticalLabelPosition=bottom;verticalAlign=top;align=center;outlineConnect=0;shape=mxgraph.veeam.globe;" parent="1" vertex="1">
          <mxGeometry x="1577" y="270" width="20" height="20" as="geometry" />
        </mxCell>
        <mxCell id="aaV3_4VG9kTLFOAMbQMQ-23" value="&lt;font style=&quot;font-size: 15px;&quot;&gt;Hin&lt;/font&gt;" style="text;html=1;align=center;verticalAlign=middle;whiteSpace=wrap;rounded=0;" parent="1" vertex="1">
          <mxGeometry x="1607" y="265" width="60" height="30" as="geometry" />
        </mxCell>
        <mxCell id="aaV3_4VG9kTLFOAMbQMQ-24" value="" style="shadow=0;dashed=0;html=1;strokeColor=none;fillColor=#4495D1;labelPosition=center;verticalLabelPosition=bottom;verticalAlign=top;align=center;outlineConnect=0;shape=mxgraph.veeam.globe;" parent="1" vertex="1">
          <mxGeometry x="1577" y="300" width="20" height="20" as="geometry" />
        </mxCell>
        <mxCell id="aaV3_4VG9kTLFOAMbQMQ-34" value="Other" style="rounded=1;fillColor=#F1F2F4;strokeColor=none;html=1;whiteSpace=wrap;fontColor=#596780;align=left;fontSize=12;spacingLeft=10;sketch=0;" parent="1" vertex="1">
          <mxGeometry x="1612" y="295" width="65" height="33" as="geometry" />
        </mxCell>
        <mxCell id="aaV3_4VG9kTLFOAMbQMQ-35" value="" style="shape=triangle;direction=south;fillColor=#596780;strokeColor=none;html=1;sketch=0;" parent="aaV3_4VG9kTLFOAMbQMQ-34" vertex="1">
          <mxGeometry x="1" y="0.5" width="12" height="6" relative="1" as="geometry">
            <mxPoint x="-20" y="-3" as="offset" />
          </mxGeometry>
        </mxCell>
        <mxCell id="aaV3_4VG9kTLFOAMbQMQ-36" value="&lt;span&gt;&lt;/span&gt;" style="rounded=0;whiteSpace=wrap;html=1;" parent="1" vertex="1">
          <mxGeometry x="2973.26" y="80" width="630" height="400" as="geometry" />
        </mxCell>
        <mxCell id="aaV3_4VG9kTLFOAMbQMQ-37" value="" style="endArrow=none;html=1;rounded=0;exitX=-0.002;exitY=0.121;exitDx=0;exitDy=0;entryX=0.998;entryY=0.125;entryDx=0;entryDy=0;entryPerimeter=0;exitPerimeter=0;" parent="1" source="aaV3_4VG9kTLFOAMbQMQ-36" target="aaV3_4VG9kTLFOAMbQMQ-36" edge="1">
          <mxGeometry width="50" height="50" relative="1" as="geometry">
            <mxPoint x="3293.26" y="550" as="sourcePoint" />
            <mxPoint x="3343.26" y="500" as="targetPoint" />
          </mxGeometry>
        </mxCell>
        <mxCell id="aaV3_4VG9kTLFOAMbQMQ-38" value="&lt;div style=&quot;&quot;&gt;&lt;span style=&quot;font-size: 16px; white-space-collapse: preserve;&quot;&gt;&lt;b&gt;Identify yourself ?&lt;/b&gt;&lt;/span&gt;&lt;/div&gt;" style="text;html=1;align=left;verticalAlign=middle;whiteSpace=wrap;rounded=0;" parent="1" vertex="1">
          <mxGeometry x="3198.26" y="129" width="160" height="80" as="geometry" />
        </mxCell>
        <mxCell id="aaV3_4VG9kTLFOAMbQMQ-41" value="&lt;b&gt;&lt;font style=&quot;font-size: 27px;&quot;&gt;3&lt;/font&gt;&lt;/b&gt;" style="ellipse;whiteSpace=wrap;html=1;aspect=fixed;" parent="1" vertex="1">
          <mxGeometry x="2062" y="80" width="40" height="40" as="geometry" />
        </mxCell>
        <mxCell id="aaV3_4VG9kTLFOAMbQMQ-43" value="&lt;font style=&quot;font-size: 15px;&quot;&gt;Owner&lt;/font&gt;" style="text;html=1;align=center;verticalAlign=middle;whiteSpace=wrap;rounded=0;" parent="1" vertex="1">
          <mxGeometry x="3228.26" y="215" width="60" height="30" as="geometry" />
        </mxCell>
        <mxCell id="aaV3_4VG9kTLFOAMbQMQ-45" value="&lt;font style=&quot;font-size: 15px;&quot;&gt;Tenantt&lt;/font&gt;" style="text;html=1;align=center;verticalAlign=middle;whiteSpace=wrap;rounded=0;" parent="1" vertex="1">
          <mxGeometry x="3228.26" y="250.5" width="60" height="30" as="geometry" />
        </mxCell>
        <mxCell id="aaV3_4VG9kTLFOAMbQMQ-49" value="&lt;font style=&quot;font-size: 15px;&quot;&gt;Property Manager&lt;/font&gt;" style="text;html=1;align=center;verticalAlign=middle;whiteSpace=wrap;rounded=0;" parent="1" vertex="1">
          <mxGeometry x="3233.26" y="280" width="125" height="30" as="geometry" />
        </mxCell>
        <mxCell id="aaV3_4VG9kTLFOAMbQMQ-50" value="&lt;b&gt;&lt;font style=&quot;font-size: 17px;&quot;&gt;Next 2/10&lt;/font&gt;&lt;/b&gt;" style="rounded=1;whiteSpace=wrap;html=1;" parent="1" vertex="1">
          <mxGeometry x="3198.26" y="350" width="180" height="30" as="geometry" />
        </mxCell>
        <mxCell id="aaV3_4VG9kTLFOAMbQMQ-51" value="" style="verticalLabelPosition=bottom;verticalAlign=top;html=1;shape=mxgraph.basic.tick" parent="1" vertex="1">
          <mxGeometry x="1712" y="240" width="25" height="20" as="geometry" />
        </mxCell>
        <mxCell id="aaV3_4VG9kTLFOAMbQMQ-52" value="" style="verticalLabelPosition=bottom;verticalAlign=top;html=1;shape=mxgraph.basic.tick" parent="1" vertex="1">
          <mxGeometry x="3333.26" y="250.5" width="25" height="20" as="geometry" />
        </mxCell>
        <mxCell id="aaV3_4VG9kTLFOAMbQMQ-53" value="&lt;span&gt;&lt;/span&gt;" style="rounded=0;whiteSpace=wrap;html=1;" parent="1" vertex="1">
          <mxGeometry x="642.63" y="4440" width="630" height="520" as="geometry" />
        </mxCell>
        <mxCell id="aaV3_4VG9kTLFOAMbQMQ-54" value="" style="endArrow=none;html=1;rounded=0;exitX=-0.002;exitY=0.121;exitDx=0;exitDy=0;entryX=0.998;entryY=0.125;entryDx=0;entryDy=0;entryPerimeter=0;exitPerimeter=0;" parent="1" source="aaV3_4VG9kTLFOAMbQMQ-53" target="aaV3_4VG9kTLFOAMbQMQ-53" edge="1">
          <mxGeometry width="50" height="50" relative="1" as="geometry">
            <mxPoint x="932.63" y="5010" as="sourcePoint" />
            <mxPoint x="982.63" y="4960" as="targetPoint" />
          </mxGeometry>
        </mxCell>
        <mxCell id="aaV3_4VG9kTLFOAMbQMQ-55" value="&lt;div style=&quot;text-align: left;&quot;&gt;&lt;span style=&quot;white-space-collapse: preserve;&quot;&gt;&lt;b style=&quot;&quot;&gt;&lt;font style=&quot;font-size: 18px;&quot;&gt;Who is filling : Tenant&lt;/font&gt;&lt;/b&gt;&lt;/span&gt;&lt;/div&gt;" style="text;html=1;align=center;verticalAlign=middle;whiteSpace=wrap;rounded=0;" parent="1" vertex="1">
          <mxGeometry x="847.63" y="4510" width="220" height="39.5" as="geometry" />
        </mxCell>
        <mxCell id="aaV3_4VG9kTLFOAMbQMQ-59" value="&lt;span style=&quot;font-size: 15px;&quot;&gt;* First Name&lt;/span&gt;" style="text;html=1;align=center;verticalAlign=middle;whiteSpace=wrap;rounded=0;" parent="1" vertex="1">
          <mxGeometry x="672.63" y="4603" width="91" height="30" as="geometry" />
        </mxCell>
        <mxCell id="aaV3_4VG9kTLFOAMbQMQ-64" value="&lt;b&gt;&lt;font style=&quot;font-size: 17px;&quot;&gt;Next 2/10&lt;/font&gt;&lt;/b&gt;" style="rounded=1;whiteSpace=wrap;html=1;" parent="1" vertex="1">
          <mxGeometry x="822.63" y="4900" width="180" height="30" as="geometry" />
        </mxCell>
        <mxCell id="aaV3_4VG9kTLFOAMbQMQ-66" value="&lt;span&gt;&lt;/span&gt;" style="rounded=0;whiteSpace=wrap;html=1;" parent="1" vertex="1">
          <mxGeometry x="192.63" y="6390" width="630" height="340" as="geometry" />
        </mxCell>
        <mxCell id="aaV3_4VG9kTLFOAMbQMQ-67" value="" style="endArrow=none;html=1;rounded=0;exitX=-0.002;exitY=0.121;exitDx=0;exitDy=0;entryX=0.998;entryY=0.125;entryDx=0;entryDy=0;entryPerimeter=0;exitPerimeter=0;" parent="1" source="aaV3_4VG9kTLFOAMbQMQ-66" target="aaV3_4VG9kTLFOAMbQMQ-66" edge="1">
          <mxGeometry width="50" height="50" relative="1" as="geometry">
            <mxPoint x="512.63" y="6860" as="sourcePoint" />
            <mxPoint x="562.63" y="6810" as="targetPoint" />
          </mxGeometry>
        </mxCell>
        <mxCell id="aaV3_4VG9kTLFOAMbQMQ-68" value="&lt;div style=&quot;text-align: left;&quot;&gt;&lt;span style=&quot;font-size: 16px; white-space-collapse: preserve;&quot;&gt;&lt;b&gt;You are tenant&lt;/b&gt;&lt;/span&gt;&lt;/div&gt;" style="text;html=1;align=center;verticalAlign=middle;whiteSpace=wrap;rounded=0;" parent="1" vertex="1">
          <mxGeometry x="222.63" y="6450" width="160" height="80" as="geometry" />
        </mxCell>
        <mxCell id="aaV3_4VG9kTLFOAMbQMQ-69" value="&lt;b&gt;&amp;nbsp; &amp;nbsp; &amp;nbsp; Preview&lt;/b&gt;&lt;div&gt;&lt;br&gt;&lt;/div&gt;&lt;div&gt;&lt;br&gt;&lt;/div&gt;&lt;div&gt;&lt;br&gt;&lt;/div&gt;&lt;div&gt;&lt;br&gt;&lt;/div&gt;&lt;div&gt;&lt;br&gt;&lt;/div&gt;&lt;div&gt;&lt;br&gt;&lt;/div&gt;&lt;div&gt;&lt;br&gt;&lt;/div&gt;&lt;div&gt;&lt;br&gt;&lt;/div&gt;&lt;div&gt;&lt;br&gt;&lt;/div&gt;&lt;div&gt;&lt;br&gt;&lt;/div&gt;&lt;div&gt;&lt;br&gt;&lt;/div&gt;&lt;div&gt;&lt;br&gt;&lt;/div&gt;" style="rounded=0;whiteSpace=wrap;html=1;align=left;" parent="1" vertex="1">
          <mxGeometry x="437.63" y="6450" width="355" height="240" as="geometry" />
        </mxCell>
        <mxCell id="aaV3_4VG9kTLFOAMbQMQ-70" value="&lt;b&gt;&lt;font style=&quot;font-size: 27px;&quot;&gt;4&lt;/font&gt;&lt;/b&gt;" style="ellipse;whiteSpace=wrap;html=1;aspect=fixed;" parent="1" vertex="1">
          <mxGeometry x="31" y="4978" width="40" height="40" as="geometry" />
        </mxCell>
        <mxCell id="aaV3_4VG9kTLFOAMbQMQ-71" value="" style="shadow=0;dashed=0;html=1;strokeColor=none;fillColor=#4495D1;labelPosition=center;verticalLabelPosition=bottom;verticalAlign=top;align=center;outlineConnect=0;shape=mxgraph.veeam.globe;" parent="1" vertex="1">
          <mxGeometry x="222.63" y="6530" width="20" height="20" as="geometry" />
        </mxCell>
        <mxCell id="aaV3_4VG9kTLFOAMbQMQ-72" value="&lt;font style=&quot;font-size: 15px;&quot;&gt;Owner&lt;/font&gt;" style="text;html=1;align=center;verticalAlign=middle;whiteSpace=wrap;rounded=0;" parent="1" vertex="1">
          <mxGeometry x="252.63" y="6525" width="60" height="30" as="geometry" />
        </mxCell>
        <mxCell id="aaV3_4VG9kTLFOAMbQMQ-73" value="" style="shadow=0;dashed=0;html=1;strokeColor=none;fillColor=#4495D1;labelPosition=center;verticalLabelPosition=bottom;verticalAlign=top;align=center;outlineConnect=0;shape=mxgraph.veeam.globe;" parent="1" vertex="1">
          <mxGeometry x="222.63" y="6560" width="20" height="20" as="geometry" />
        </mxCell>
        <mxCell id="aaV3_4VG9kTLFOAMbQMQ-74" value="&lt;font style=&quot;font-size: 15px;&quot;&gt;Tenantt&lt;/font&gt;" style="text;html=1;align=center;verticalAlign=middle;whiteSpace=wrap;rounded=0;" parent="1" vertex="1">
          <mxGeometry x="252.63" y="6555" width="60" height="30" as="geometry" />
        </mxCell>
        <mxCell id="aaV3_4VG9kTLFOAMbQMQ-75" value="" style="shadow=0;dashed=0;html=1;strokeColor=none;fillColor=#4495D1;labelPosition=center;verticalLabelPosition=bottom;verticalAlign=top;align=center;outlineConnect=0;shape=mxgraph.veeam.globe;" parent="1" vertex="1">
          <mxGeometry x="222.63" y="6590" width="20" height="20" as="geometry" />
        </mxCell>
        <mxCell id="aaV3_4VG9kTLFOAMbQMQ-76" value="&lt;font style=&quot;font-size: 15px;&quot;&gt;Property Manager&lt;/font&gt;" style="text;html=1;align=center;verticalAlign=middle;whiteSpace=wrap;rounded=0;" parent="1" vertex="1">
          <mxGeometry x="257.63" y="6585" width="125" height="30" as="geometry" />
        </mxCell>
        <mxCell id="aaV3_4VG9kTLFOAMbQMQ-77" value="&lt;b&gt;&lt;font style=&quot;font-size: 17px;&quot;&gt;Next 2/10&lt;/font&gt;&lt;/b&gt;" style="rounded=1;whiteSpace=wrap;html=1;" parent="1" vertex="1">
          <mxGeometry x="222.63" y="6660" width="180" height="30" as="geometry" />
        </mxCell>
        <mxCell id="aaV3_4VG9kTLFOAMbQMQ-78" value="" style="verticalLabelPosition=bottom;verticalAlign=top;html=1;shape=mxgraph.basic.tick" parent="1" vertex="1">
          <mxGeometry x="362.63" y="6530" width="25" height="20" as="geometry" />
        </mxCell>
        <mxCell id="aaV3_4VG9kTLFOAMbQMQ-79" value="" style="rounded=1;whiteSpace=wrap;html=1;" parent="1" vertex="1">
          <mxGeometry x="784.63" y="4600.5" width="85" height="35" as="geometry" />
        </mxCell>
        <mxCell id="aaV3_4VG9kTLFOAMbQMQ-80" value="&lt;span style=&quot;font-size: 15px;&quot;&gt;* Last Name&lt;/span&gt;" style="text;html=1;align=center;verticalAlign=middle;whiteSpace=wrap;rounded=0;" parent="1" vertex="1">
          <mxGeometry x="672.63" y="4645.5" width="93" height="30" as="geometry" />
        </mxCell>
        <mxCell id="aaV3_4VG9kTLFOAMbQMQ-81" value="" style="rounded=1;whiteSpace=wrap;html=1;" parent="1" vertex="1">
          <mxGeometry x="784.63" y="4645.5" width="85" height="35" as="geometry" />
        </mxCell>
        <mxCell id="aaV3_4VG9kTLFOAMbQMQ-91" value="&lt;span style=&quot;font-size: 15px;&quot;&gt;* Email&lt;/span&gt;" style="text;html=1;align=center;verticalAlign=middle;whiteSpace=wrap;rounded=0;" parent="1" vertex="1">
          <mxGeometry x="683.63" y="4798.5" width="80" height="30" as="geometry" />
        </mxCell>
        <mxCell id="aaV3_4VG9kTLFOAMbQMQ-92" value="" style="rounded=1;whiteSpace=wrap;html=1;" parent="1" vertex="1">
          <mxGeometry x="784.63" y="4796" width="85" height="35" as="geometry" />
        </mxCell>
        <mxCell id="aaV3_4VG9kTLFOAMbQMQ-93" value="&lt;span style=&quot;font-size: 15px;&quot;&gt;* Phone&lt;/span&gt;" style="text;html=1;align=center;verticalAlign=middle;whiteSpace=wrap;rounded=0;" parent="1" vertex="1">
          <mxGeometry x="685.63" y="4841" width="80" height="30" as="geometry" />
        </mxCell>
        <mxCell id="aaV3_4VG9kTLFOAMbQMQ-94" value="" style="rounded=1;whiteSpace=wrap;html=1;" parent="1" vertex="1">
          <mxGeometry x="784.63" y="4838.5" width="85" height="35" as="geometry" />
        </mxCell>
        <mxCell id="I9zTokaMYXYdYf4xdTNR-88" style="edgeStyle=orthogonalEdgeStyle;rounded=0;orthogonalLoop=1;jettySize=auto;html=1;" parent="1" source="aaV3_4VG9kTLFOAMbQMQ-98" edge="1">
          <mxGeometry relative="1" as="geometry">
            <mxPoint x="2972" y="280" as="targetPoint" />
          </mxGeometry>
        </mxCell>
        <mxCell id="aaV3_4VG9kTLFOAMbQMQ-98" value="&lt;span&gt;&lt;/span&gt;" style="rounded=0;whiteSpace=wrap;html=1;" parent="1" vertex="1">
          <mxGeometry x="2142" y="80" width="630" height="400" as="geometry" />
        </mxCell>
        <mxCell id="aaV3_4VG9kTLFOAMbQMQ-99" value="" style="endArrow=none;html=1;rounded=0;exitX=-0.002;exitY=0.121;exitDx=0;exitDy=0;entryX=0.998;entryY=0.125;entryDx=0;entryDy=0;entryPerimeter=0;exitPerimeter=0;" parent="1" source="aaV3_4VG9kTLFOAMbQMQ-98" target="aaV3_4VG9kTLFOAMbQMQ-98" edge="1">
          <mxGeometry width="50" height="50" relative="1" as="geometry">
            <mxPoint x="2402" y="1369" as="sourcePoint" />
            <mxPoint x="2452" y="1319" as="targetPoint" />
          </mxGeometry>
        </mxCell>
        <mxCell id="aaV3_4VG9kTLFOAMbQMQ-100" value="&lt;div style=&quot;text-align: left;&quot;&gt;&lt;span style=&quot;font-size: 16px; white-space-collapse: preserve;&quot;&gt;&lt;b&gt;Choose  Agrement &lt;/b&gt;&lt;/span&gt;&lt;/div&gt;" style="text;html=1;align=center;verticalAlign=middle;whiteSpace=wrap;rounded=0;" parent="1" vertex="1">
          <mxGeometry x="2362" y="140" width="160" height="80" as="geometry" />
        </mxCell>
        <mxCell id="aaV3_4VG9kTLFOAMbQMQ-108" value="&lt;font style=&quot;font-size: 15px;&quot;&gt;Rental Agreement&amp;nbsp;&lt;/font&gt;" style="rounded=1;fillColor=#F1F2F4;strokeColor=none;html=1;whiteSpace=wrap;fontColor=#596780;align=left;fontSize=12;spacingLeft=10;sketch=0;" parent="1" vertex="1">
          <mxGeometry x="2362" y="265" width="160" height="45" as="geometry" />
        </mxCell>
        <mxCell id="aaV3_4VG9kTLFOAMbQMQ-109" value="" style="shape=triangle;direction=south;fillColor=#596780;strokeColor=none;html=1;sketch=0;" parent="aaV3_4VG9kTLFOAMbQMQ-108" vertex="1">
          <mxGeometry x="1" y="0.5" width="12" height="6" relative="1" as="geometry">
            <mxPoint x="-20" y="-3" as="offset" />
          </mxGeometry>
        </mxCell>
        <mxCell id="aaV3_4VG9kTLFOAMbQMQ-110" value="" style="verticalLabelPosition=bottom;verticalAlign=top;html=1;shape=mxgraph.basic.tick" parent="1" vertex="1">
          <mxGeometry x="2562" y="275.5" width="25" height="20" as="geometry" />
        </mxCell>
        <mxCell id="aaV3_4VG9kTLFOAMbQMQ-112" value="&lt;b&gt;&lt;font style=&quot;font-size: 17px;&quot;&gt;Next 2/10&lt;/font&gt;&lt;/b&gt;" style="rounded=1;whiteSpace=wrap;html=1;" parent="1" vertex="1">
          <mxGeometry x="2362" y="390" width="180" height="30" as="geometry" />
        </mxCell>
        <mxCell id="aaV3_4VG9kTLFOAMbQMQ-116" value="" style="shape=flexArrow;endArrow=classic;html=1;rounded=0;endWidth=50;endSize=34.550000000000004;width=56.66666666666667;" parent="1" edge="1">
          <mxGeometry width="50" height="50" relative="1" as="geometry">
            <mxPoint y="820" as="sourcePoint" />
            <mxPoint x="510" y="820" as="targetPoint" />
            <Array as="points">
              <mxPoint x="420" y="820" />
            </Array>
          </mxGeometry>
        </mxCell>
        <mxCell id="aaV3_4VG9kTLFOAMbQMQ-117" value="&lt;font style=&quot;font-size: 24px;&quot;&gt;&lt;b style=&quot;&quot;&gt;1 . Tenant Flow : I have all the information&lt;/b&gt;&lt;/font&gt;" style="edgeLabel;html=1;align=center;verticalAlign=middle;resizable=0;points=[];" parent="aaV3_4VG9kTLFOAMbQMQ-116" vertex="1" connectable="0">
          <mxGeometry x="-0.256" y="2" relative="1" as="geometry">
            <mxPoint x="56" as="offset" />
          </mxGeometry>
        </mxCell>
        <mxCell id="aaV3_4VG9kTLFOAMbQMQ-118" value="&lt;span&gt;&lt;/span&gt;" style="rounded=0;whiteSpace=wrap;html=1;" parent="1" vertex="1">
          <mxGeometry x="2492.63" y="4598" width="630" height="520" as="geometry" />
        </mxCell>
        <mxCell id="aaV3_4VG9kTLFOAMbQMQ-119" value="" style="endArrow=none;html=1;rounded=0;exitX=-0.002;exitY=0.121;exitDx=0;exitDy=0;entryX=0.998;entryY=0.125;entryDx=0;entryDy=0;entryPerimeter=0;exitPerimeter=0;" parent="1" source="aaV3_4VG9kTLFOAMbQMQ-118" target="aaV3_4VG9kTLFOAMbQMQ-118" edge="1">
          <mxGeometry width="50" height="50" relative="1" as="geometry">
            <mxPoint x="2812.63" y="5068" as="sourcePoint" />
            <mxPoint x="2862.63" y="5018" as="targetPoint" />
          </mxGeometry>
        </mxCell>
        <mxCell id="aaV3_4VG9kTLFOAMbQMQ-120" value="&lt;div style=&quot;text-align: left;&quot;&gt;&lt;span style=&quot;font-size: 16px; white-space-collapse: preserve;&quot;&gt;&lt;b&gt;Property Details 1&lt;/b&gt;&lt;/span&gt;&lt;/div&gt;" style="text;html=1;align=center;verticalAlign=middle;whiteSpace=wrap;rounded=0;" parent="1" vertex="1">
          <mxGeometry x="2752.63" y="4668" width="160" height="80" as="geometry" />
        </mxCell>
        <mxCell id="aaV3_4VG9kTLFOAMbQMQ-121" value="&lt;b&gt;&lt;font style=&quot;font-size: 27px;&quot;&gt;3.3&lt;/font&gt;&lt;/b&gt;" style="ellipse;whiteSpace=wrap;html=1;aspect=fixed;" parent="1" vertex="1">
          <mxGeometry x="2412.63" y="4598" width="50" height="50" as="geometry" />
        </mxCell>
        <mxCell id="aaV3_4VG9kTLFOAMbQMQ-123" value="&lt;span style=&quot;font-size: 15px;&quot;&gt;Apartment&lt;/span&gt;" style="rounded=1;fillColor=#F1F2F4;strokeColor=none;html=1;whiteSpace=wrap;fontColor=#596780;align=left;fontSize=12;spacingLeft=10;sketch=0;" parent="1" vertex="1">
          <mxGeometry x="2752.63" y="4793" width="160" height="45" as="geometry" />
        </mxCell>
        <mxCell id="aaV3_4VG9kTLFOAMbQMQ-124" value="" style="shape=triangle;direction=south;fillColor=#596780;strokeColor=none;html=1;sketch=0;" parent="aaV3_4VG9kTLFOAMbQMQ-123" vertex="1">
          <mxGeometry x="1" y="0.5" width="12" height="6" relative="1" as="geometry">
            <mxPoint x="-20" y="-3" as="offset" />
          </mxGeometry>
        </mxCell>
        <mxCell id="aaV3_4VG9kTLFOAMbQMQ-125" value="" style="verticalLabelPosition=bottom;verticalAlign=top;html=1;shape=mxgraph.basic.tick" parent="1" vertex="1">
          <mxGeometry x="2952.63" y="4803.5" width="25" height="20" as="geometry" />
        </mxCell>
        <mxCell id="aaV3_4VG9kTLFOAMbQMQ-126" value="&lt;b&gt;&lt;font style=&quot;font-size: 17px;&quot;&gt;Next 2/10&lt;/font&gt;&lt;/b&gt;" style="rounded=1;whiteSpace=wrap;html=1;" parent="1" vertex="1">
          <mxGeometry x="2752.63" y="5068" width="180" height="30" as="geometry" />
        </mxCell>
        <mxCell id="aaV3_4VG9kTLFOAMbQMQ-128" value="&lt;span style=&quot;font-size: 15px;&quot;&gt;Type&lt;/span&gt;" style="text;html=1;align=center;verticalAlign=middle;whiteSpace=wrap;rounded=0;" parent="1" vertex="1">
          <mxGeometry x="2652.63" y="4798.5" width="80" height="30" as="geometry" />
        </mxCell>
        <mxCell id="aaV3_4VG9kTLFOAMbQMQ-130" value="&lt;ul&gt;&lt;li&gt;&lt;font face=&quot;Lucida Console&quot;&gt;Apartment&lt;/font&gt;&lt;/li&gt;&lt;li&gt;&lt;font face=&quot;Lucida Console&quot;&gt;PG&lt;/font&gt;&lt;/li&gt;&lt;li&gt;&lt;font face=&quot;Lucida Console&quot;&gt;Individual House&lt;/font&gt;&lt;/li&gt;&lt;li&gt;&lt;font face=&quot;Lucida Console&quot;&gt;Service apartment&lt;/font&gt;&lt;/li&gt;&lt;/ul&gt;&lt;div&gt;&lt;br&gt;&lt;/div&gt;" style="text;html=1;align=left;verticalAlign=middle;whiteSpace=wrap;rounded=0;" parent="1" vertex="1">
          <mxGeometry x="2962.63" y="4708" width="140" height="30" as="geometry" />
        </mxCell>
        <mxCell id="aaV3_4VG9kTLFOAMbQMQ-134" value="" style="endArrow=classic;html=1;rounded=0;entryX=0.148;entryY=1.144;entryDx=0;entryDy=0;entryPerimeter=0;" parent="1" target="aaV3_4VG9kTLFOAMbQMQ-130" edge="1">
          <mxGeometry width="50" height="50" relative="1" as="geometry">
            <mxPoint x="2902.63" y="4777" as="sourcePoint" />
            <mxPoint x="2952.63" y="4727" as="targetPoint" />
          </mxGeometry>
        </mxCell>
        <mxCell id="aaV3_4VG9kTLFOAMbQMQ-135" value="&lt;span style=&quot;font-size: 15px;&quot;&gt;1&lt;/span&gt;" style="rounded=1;fillColor=#F1F2F4;strokeColor=none;html=1;whiteSpace=wrap;fontColor=#596780;align=left;fontSize=12;spacingLeft=10;sketch=0;" parent="1" vertex="1">
          <mxGeometry x="2752.63" y="4853" width="160" height="45" as="geometry" />
        </mxCell>
        <mxCell id="aaV3_4VG9kTLFOAMbQMQ-136" value="" style="shape=triangle;direction=south;fillColor=#596780;strokeColor=none;html=1;sketch=0;" parent="aaV3_4VG9kTLFOAMbQMQ-135" vertex="1">
          <mxGeometry x="1" y="0.5" width="12" height="6" relative="1" as="geometry">
            <mxPoint x="-20" y="-3" as="offset" />
          </mxGeometry>
        </mxCell>
        <mxCell id="aaV3_4VG9kTLFOAMbQMQ-137" value="&lt;span style=&quot;font-size: 15px;&quot;&gt;Floor&lt;/span&gt;" style="text;html=1;align=center;verticalAlign=middle;whiteSpace=wrap;rounded=0;" parent="1" vertex="1">
          <mxGeometry x="2652.63" y="4858.5" width="80" height="30" as="geometry" />
        </mxCell>
        <mxCell id="aaV3_4VG9kTLFOAMbQMQ-138" value="&lt;span style=&quot;font-size: 15px;&quot;&gt;1000 SQFT&lt;/span&gt;" style="rounded=1;fillColor=#F1F2F4;strokeColor=none;html=1;whiteSpace=wrap;fontColor=#596780;align=left;fontSize=12;spacingLeft=10;sketch=0;" parent="1" vertex="1">
          <mxGeometry x="2752.63" y="4914.5" width="160" height="45" as="geometry" />
        </mxCell>
        <mxCell id="aaV3_4VG9kTLFOAMbQMQ-139" value="" style="shape=triangle;direction=south;fillColor=#596780;strokeColor=none;html=1;sketch=0;" parent="aaV3_4VG9kTLFOAMbQMQ-138" vertex="1">
          <mxGeometry x="1" y="0.5" width="12" height="6" relative="1" as="geometry">
            <mxPoint x="-20" y="-3" as="offset" />
          </mxGeometry>
        </mxCell>
        <mxCell id="aaV3_4VG9kTLFOAMbQMQ-140" value="&lt;span style=&quot;font-size: 15px;&quot;&gt;Size&lt;/span&gt;" style="text;html=1;align=center;verticalAlign=middle;whiteSpace=wrap;rounded=0;" parent="1" vertex="1">
          <mxGeometry x="2652.63" y="4920" width="80" height="30" as="geometry" />
        </mxCell>
        <mxCell id="aaV3_4VG9kTLFOAMbQMQ-145" value="&lt;b&gt;&lt;font style=&quot;font-size: 27px;&quot;&gt;4&lt;/font&gt;&lt;/b&gt;" style="ellipse;whiteSpace=wrap;html=1;aspect=fixed;" parent="1" vertex="1">
          <mxGeometry x="2862" y="80" width="40" height="40" as="geometry" />
        </mxCell>
        <mxCell id="aaV3_4VG9kTLFOAMbQMQ-146" value="&lt;b&gt;&lt;font style=&quot;font-size: 18px;&quot;&gt;&amp;nbsp; &amp;nbsp; &amp;nbsp; &amp;nbsp; &amp;nbsp; &amp;nbsp; &amp;nbsp;Preview as details get filled&lt;/font&gt;&lt;/b&gt;" style="rounded=0;whiteSpace=wrap;html=1;align=left;" parent="1" vertex="1">
          <mxGeometry x="902.63" y="4570" width="350" height="300" as="geometry" />
        </mxCell>
        <mxCell id="aaV3_4VG9kTLFOAMbQMQ-162" value="" style="verticalLabelPosition=bottom;html=1;verticalAlign=top;align=center;strokeColor=none;fillColor=#00BEF2;shape=mxgraph.azure.file;pointerEvents=1;" parent="1" vertex="1">
          <mxGeometry x="2302" y="267.5" width="40" height="40" as="geometry" />
        </mxCell>
        <mxCell id="aaV3_4VG9kTLFOAMbQMQ-164" value="&lt;span style=&quot;font-size: 15px;&quot;&gt;* Gender&lt;/span&gt;" style="text;html=1;align=center;verticalAlign=middle;whiteSpace=wrap;rounded=0;" parent="1" vertex="1">
          <mxGeometry x="670.63" y="4695.5" width="93" height="30" as="geometry" />
        </mxCell>
        <mxCell id="aaV3_4VG9kTLFOAMbQMQ-166" value="&lt;span style=&quot;white-space-collapse: preserve;&quot;&gt;&lt;font style=&quot;font-size: 17px;&quot;&gt;&lt;u style=&quot;&quot;&gt;&lt;b style=&quot;&quot;&gt;Tenant Details : 1&lt;/b&gt;&lt;/u&gt;&lt;/font&gt;&lt;/span&gt;" style="text;html=1;align=center;verticalAlign=middle;whiteSpace=wrap;rounded=0;" parent="1" vertex="1">
          <mxGeometry x="665.63" y="4561" width="147" height="39.5" as="geometry" />
        </mxCell>
        <mxCell id="aaV3_4VG9kTLFOAMbQMQ-170" value="Same as Permanant address" style="text;html=1;align=center;verticalAlign=middle;resizable=0;points=[];autosize=1;strokeColor=none;fillColor=none;" parent="1" vertex="1">
          <mxGeometry x="1272.63" y="5060" width="180" height="30" as="geometry" />
        </mxCell>
        <mxCell id="aaV3_4VG9kTLFOAMbQMQ-172" value="&lt;span&gt;&lt;/span&gt;" style="rounded=0;whiteSpace=wrap;html=1;" parent="1" vertex="1">
          <mxGeometry x="1337.63" y="4440" width="630" height="520" as="geometry" />
        </mxCell>
        <mxCell id="aaV3_4VG9kTLFOAMbQMQ-173" value="" style="endArrow=none;html=1;rounded=0;exitX=-0.002;exitY=0.121;exitDx=0;exitDy=0;entryX=0.998;entryY=0.125;entryDx=0;entryDy=0;entryPerimeter=0;exitPerimeter=0;" parent="1" source="aaV3_4VG9kTLFOAMbQMQ-172" target="aaV3_4VG9kTLFOAMbQMQ-172" edge="1">
          <mxGeometry width="50" height="50" relative="1" as="geometry">
            <mxPoint x="1627.63" y="5010" as="sourcePoint" />
            <mxPoint x="1677.63" y="4960" as="targetPoint" />
          </mxGeometry>
        </mxCell>
        <mxCell id="aaV3_4VG9kTLFOAMbQMQ-174" value="&lt;div style=&quot;text-align: left;&quot;&gt;&lt;span style=&quot;white-space-collapse: preserve;&quot;&gt;&lt;b style=&quot;&quot;&gt;&lt;font style=&quot;font-size: 18px;&quot;&gt;Who is filling : Tenant&lt;/font&gt;&lt;/b&gt;&lt;/span&gt;&lt;/div&gt;" style="text;html=1;align=center;verticalAlign=middle;whiteSpace=wrap;rounded=0;" parent="1" vertex="1">
          <mxGeometry x="1542.63" y="4510" width="220" height="39.5" as="geometry" />
        </mxCell>
        <mxCell id="aaV3_4VG9kTLFOAMbQMQ-175" value="&lt;span style=&quot;font-size: 15px;&quot;&gt;* Father&#39;s Name&lt;/span&gt;" style="text;html=1;align=center;verticalAlign=middle;whiteSpace=wrap;rounded=0;" parent="1" vertex="1">
          <mxGeometry x="1342.63" y="4603" width="116" height="30" as="geometry" />
        </mxCell>
        <mxCell id="aaV3_4VG9kTLFOAMbQMQ-176" value="&lt;b&gt;&lt;font style=&quot;font-size: 17px;&quot;&gt;Next 2/10&lt;/font&gt;&lt;/b&gt;" style="rounded=1;whiteSpace=wrap;html=1;" parent="1" vertex="1">
          <mxGeometry x="1517.63" y="4900" width="180" height="30" as="geometry" />
        </mxCell>
        <mxCell id="aaV3_4VG9kTLFOAMbQMQ-177" value="" style="rounded=1;whiteSpace=wrap;html=1;" parent="1" vertex="1">
          <mxGeometry x="1479.63" y="4600.5" width="85" height="35" as="geometry" />
        </mxCell>
        <mxCell id="aaV3_4VG9kTLFOAMbQMQ-180" value="&lt;span style=&quot;font-size: 15px;&quot;&gt;* Permanant Address&lt;/span&gt;" style="text;html=1;align=center;verticalAlign=middle;whiteSpace=wrap;rounded=0;" parent="1" vertex="1">
          <mxGeometry x="1367.63" y="4645.5" width="93" height="30" as="geometry" />
        </mxCell>
        <mxCell id="aaV3_4VG9kTLFOAMbQMQ-181" value="" style="rounded=1;whiteSpace=wrap;html=1;" parent="1" vertex="1">
          <mxGeometry x="1479.63" y="4643" width="85" height="35" as="geometry" />
        </mxCell>
        <mxCell id="aaV3_4VG9kTLFOAMbQMQ-182" value="&lt;span style=&quot;font-size: 15px;&quot;&gt;* Email&lt;/span&gt;" style="text;html=1;align=center;verticalAlign=middle;whiteSpace=wrap;rounded=0;" parent="1" vertex="1">
          <mxGeometry x="1378.63" y="4798.5" width="80" height="30" as="geometry" />
        </mxCell>
        <mxCell id="aaV3_4VG9kTLFOAMbQMQ-183" value="" style="rounded=1;whiteSpace=wrap;html=1;" parent="1" vertex="1">
          <mxGeometry x="1479.63" y="4796" width="85" height="35" as="geometry" />
        </mxCell>
        <mxCell id="aaV3_4VG9kTLFOAMbQMQ-184" value="&lt;span style=&quot;font-size: 15px;&quot;&gt;* Phone&lt;/span&gt;" style="text;html=1;align=center;verticalAlign=middle;whiteSpace=wrap;rounded=0;" parent="1" vertex="1">
          <mxGeometry x="1380.63" y="4841" width="80" height="30" as="geometry" />
        </mxCell>
        <mxCell id="aaV3_4VG9kTLFOAMbQMQ-185" value="" style="rounded=1;whiteSpace=wrap;html=1;" parent="1" vertex="1">
          <mxGeometry x="1479.63" y="4838.5" width="85" height="35" as="geometry" />
        </mxCell>
        <mxCell id="aaV3_4VG9kTLFOAMbQMQ-186" value="&lt;b&gt;&lt;font style=&quot;font-size: 18px;&quot;&gt;&amp;nbsp; &amp;nbsp; &amp;nbsp; &amp;nbsp; &amp;nbsp; &amp;nbsp; &amp;nbsp;Preview as details get filled&lt;/font&gt;&lt;/b&gt;" style="rounded=0;whiteSpace=wrap;html=1;align=left;" parent="1" vertex="1">
          <mxGeometry x="1597.63" y="4570" width="350" height="300" as="geometry" />
        </mxCell>
        <mxCell id="aaV3_4VG9kTLFOAMbQMQ-187" value="&lt;span style=&quot;font-size: 15px;&quot;&gt;* Current Address&lt;/span&gt;" style="text;html=1;align=center;verticalAlign=middle;whiteSpace=wrap;rounded=0;" parent="1" vertex="1">
          <mxGeometry x="1365.63" y="4696.5" width="93" height="30" as="geometry" />
        </mxCell>
        <mxCell id="aaV3_4VG9kTLFOAMbQMQ-188" value="" style="rounded=1;whiteSpace=wrap;html=1;" parent="1" vertex="1">
          <mxGeometry x="1479.63" y="4695.5" width="85" height="35" as="geometry" />
        </mxCell>
        <mxCell id="aaV3_4VG9kTLFOAMbQMQ-189" value="&lt;span style=&quot;white-space-collapse: preserve;&quot;&gt;&lt;font style=&quot;font-size: 17px;&quot;&gt;&lt;u style=&quot;&quot;&gt;&lt;b style=&quot;&quot;&gt;Tenant Details : 2&lt;/b&gt;&lt;/u&gt;&lt;/font&gt;&lt;/span&gt;" style="text;html=1;align=center;verticalAlign=middle;whiteSpace=wrap;rounded=0;" parent="1" vertex="1">
          <mxGeometry x="1360.63" y="4561" width="142" height="39.5" as="geometry" />
        </mxCell>
        <mxCell id="aaV3_4VG9kTLFOAMbQMQ-190" value="" style="dashed=0;labelPosition=right;align=left;shape=mxgraph.gmdl.checkbox;strokeColor=none;fillColor=#009587;strokeWidth=2;aspect=fixed;sketch=0;html=1;" parent="1" vertex="1">
          <mxGeometry x="1458.63" y="4696.5" width="16" height="16" as="geometry" />
        </mxCell>
        <mxCell id="aaV3_4VG9kTLFOAMbQMQ-193" style="edgeStyle=orthogonalEdgeStyle;rounded=0;orthogonalLoop=1;jettySize=auto;html=1;entryX=0.167;entryY=0.333;entryDx=0;entryDy=0;entryPerimeter=0;" parent="1" source="aaV3_4VG9kTLFOAMbQMQ-190" target="aaV3_4VG9kTLFOAMbQMQ-170" edge="1">
          <mxGeometry relative="1" as="geometry" />
        </mxCell>
        <mxCell id="aaV3_4VG9kTLFOAMbQMQ-194" value="" style="rounded=1;whiteSpace=wrap;html=1;" parent="1" vertex="1">
          <mxGeometry x="784.63" y="4702.5" width="85" height="35" as="geometry" />
        </mxCell>
        <mxCell id="aaV3_4VG9kTLFOAMbQMQ-207" value="" style="shape=flexArrow;endArrow=classic;html=1;rounded=0;endWidth=50;endSize=34.550000000000004;width=56.66666666666667;" parent="1" edge="1">
          <mxGeometry width="50" height="50" relative="1" as="geometry">
            <mxPoint x="72" y="4883" as="sourcePoint" />
            <mxPoint x="462" y="4883" as="targetPoint" />
            <Array as="points">
              <mxPoint x="372" y="4883" />
            </Array>
          </mxGeometry>
        </mxCell>
        <mxCell id="aaV3_4VG9kTLFOAMbQMQ-208" value="&lt;font style=&quot;font-size: 26px;&quot;&gt;&lt;b style=&quot;&quot;&gt;Tenant Flow&lt;/b&gt;&lt;/font&gt;" style="edgeLabel;html=1;align=center;verticalAlign=middle;resizable=0;points=[];" parent="aaV3_4VG9kTLFOAMbQMQ-207" vertex="1" connectable="0">
          <mxGeometry x="-0.256" y="2" relative="1" as="geometry">
            <mxPoint x="83" y="1879" as="offset" />
          </mxGeometry>
        </mxCell>
        <mxCell id="aaV3_4VG9kTLFOAMbQMQ-213" value="" style="image;sketch=0;aspect=fixed;html=1;points=[];align=center;fontSize=12;image=img/lib/mscae/Person.svg;" parent="1" vertex="1">
          <mxGeometry x="3198.26" y="220" width="14.8" height="20" as="geometry" />
        </mxCell>
        <mxCell id="aaV3_4VG9kTLFOAMbQMQ-214" value="" style="image;sketch=0;aspect=fixed;html=1;points=[];align=center;fontSize=12;image=img/lib/mscae/Person.svg;" parent="1" vertex="1">
          <mxGeometry x="3198.26" y="255.5" width="14.8" height="20" as="geometry" />
        </mxCell>
        <mxCell id="aaV3_4VG9kTLFOAMbQMQ-215" value="" style="image;sketch=0;aspect=fixed;html=1;points=[];align=center;fontSize=12;image=img/lib/mscae/Person.svg;" parent="1" vertex="1">
          <mxGeometry x="3198.26" y="285" width="14.8" height="20" as="geometry" />
        </mxCell>
        <mxCell id="aaV3_4VG9kTLFOAMbQMQ-216" value="&lt;span&gt;&lt;/span&gt;" style="rounded=0;whiteSpace=wrap;html=1;" parent="1" vertex="1">
          <mxGeometry x="643.89" y="5160" width="630" height="440" as="geometry" />
        </mxCell>
        <mxCell id="aaV3_4VG9kTLFOAMbQMQ-217" value="" style="endArrow=none;html=1;rounded=0;exitX=-0.002;exitY=0.121;exitDx=0;exitDy=0;entryX=0.998;entryY=0.125;entryDx=0;entryDy=0;entryPerimeter=0;exitPerimeter=0;" parent="1" source="aaV3_4VG9kTLFOAMbQMQ-216" target="aaV3_4VG9kTLFOAMbQMQ-216" edge="1">
          <mxGeometry width="50" height="50" relative="1" as="geometry">
            <mxPoint x="903.89" y="6449" as="sourcePoint" />
            <mxPoint x="953.89" y="6399" as="targetPoint" />
          </mxGeometry>
        </mxCell>
        <mxCell id="aaV3_4VG9kTLFOAMbQMQ-222" value="&lt;b&gt;&lt;font style=&quot;font-size: 17px;&quot;&gt;Next 2/10&lt;/font&gt;&lt;/b&gt;" style="rounded=1;whiteSpace=wrap;html=1;" parent="1" vertex="1">
          <mxGeometry x="862.63" y="5530" width="180" height="30" as="geometry" />
        </mxCell>
        <mxCell id="aaV3_4VG9kTLFOAMbQMQ-224" value="&lt;div style=&quot;text-align: left;&quot;&gt;&lt;span style=&quot;white-space-collapse: preserve;&quot;&gt;&lt;b style=&quot;&quot;&gt;&lt;font style=&quot;font-size: 18px;&quot;&gt;Who is filling : Tenant&lt;/font&gt;&lt;/b&gt;&lt;/span&gt;&lt;/div&gt;" style="text;html=1;align=center;verticalAlign=middle;whiteSpace=wrap;rounded=0;" parent="1" vertex="1">
          <mxGeometry x="847.63" y="5240" width="220" height="39.5" as="geometry" />
        </mxCell>
        <mxCell id="aaV3_4VG9kTLFOAMbQMQ-227" value="&lt;span style=&quot;font-size: 15px;&quot;&gt;&lt;u&gt;Type&lt;/u&gt;&lt;/span&gt;" style="text;html=1;align=center;verticalAlign=middle;whiteSpace=wrap;rounded=0;" parent="1" vertex="1">
          <mxGeometry x="912.63" y="5280" width="80" height="30" as="geometry" />
        </mxCell>
        <mxCell id="aaV3_4VG9kTLFOAMbQMQ-230" value="" style="shape=mxgraph.cisco.people.man_woman;html=1;pointerEvents=1;dashed=0;fillColor=#036897;strokeColor=#ffffff;strokeWidth=2;verticalLabelPosition=bottom;verticalAlign=top;align=center;outlineConnect=0;" parent="1" vertex="1">
          <mxGeometry x="1517.63" y="5899" width="30" height="60" as="geometry" />
        </mxCell>
        <mxCell id="aaV3_4VG9kTLFOAMbQMQ-233" value="&lt;span style=&quot;font-size: 15px;&quot;&gt;Bachelors&lt;/span&gt;" style="text;html=1;align=center;verticalAlign=middle;whiteSpace=wrap;rounded=0;" parent="1" vertex="1">
          <mxGeometry x="912.63" y="5310" width="80" height="30" as="geometry" />
        </mxCell>
        <mxCell id="aaV3_4VG9kTLFOAMbQMQ-256" style="edgeStyle=orthogonalEdgeStyle;rounded=0;orthogonalLoop=1;jettySize=auto;html=1;entryX=1;entryY=0.5;entryDx=0;entryDy=0;" parent="1" source="aaV3_4VG9kTLFOAMbQMQ-235" target="aaV3_4VG9kTLFOAMbQMQ-253" edge="1">
          <mxGeometry relative="1" as="geometry" />
        </mxCell>
        <mxCell id="aaV3_4VG9kTLFOAMbQMQ-235" value="" style="shape=mxgraph.cisco.people.standing_woman;html=1;pointerEvents=1;dashed=0;fillColor=#036897;strokeColor=#ffffff;strokeWidth=2;verticalLabelPosition=bottom;verticalAlign=top;align=center;outlineConnect=0;" parent="1" vertex="1">
          <mxGeometry x="871.76" y="5350" width="13" height="30" as="geometry" />
        </mxCell>
        <mxCell id="aaV3_4VG9kTLFOAMbQMQ-236" value="&lt;span style=&quot;font-size: 15px;&quot;&gt;Splinters&lt;/span&gt;" style="text;html=1;align=center;verticalAlign=middle;whiteSpace=wrap;rounded=0;" parent="1" vertex="1">
          <mxGeometry x="914.76" y="5350" width="80" height="30" as="geometry" />
        </mxCell>
        <mxCell id="aaV3_4VG9kTLFOAMbQMQ-237" value="" style="verticalLabelPosition=bottom;verticalAlign=top;html=1;shape=mxgraph.basic.tick" parent="1" vertex="1">
          <mxGeometry x="1021.02" y="5395" width="25" height="20" as="geometry" />
        </mxCell>
        <mxCell id="aaV3_4VG9kTLFOAMbQMQ-238" value="" style="shape=mxgraph.cisco.people.standing_woman;html=1;pointerEvents=1;dashed=0;fillColor=#036897;strokeColor=#ffffff;strokeWidth=2;verticalLabelPosition=bottom;verticalAlign=top;align=center;outlineConnect=0;" parent="1" vertex="1">
          <mxGeometry x="871.76" y="5390" width="13" height="30" as="geometry" />
        </mxCell>
        <mxCell id="aaV3_4VG9kTLFOAMbQMQ-239" value="&lt;span style=&quot;font-size: 15px;&quot;&gt;Couples&lt;/span&gt;" style="text;html=1;align=center;verticalAlign=middle;whiteSpace=wrap;rounded=0;" parent="1" vertex="1">
          <mxGeometry x="914.76" y="5390" width="80" height="30" as="geometry" />
        </mxCell>
        <mxCell id="aaV3_4VG9kTLFOAMbQMQ-241" value="" style="shape=mxgraph.cisco.people.standing_woman;html=1;pointerEvents=1;dashed=0;fillColor=#036897;strokeColor=#ffffff;strokeWidth=2;verticalLabelPosition=bottom;verticalAlign=top;align=center;outlineConnect=0;" parent="1" vertex="1">
          <mxGeometry x="871.76" y="5430" width="13" height="30" as="geometry" />
        </mxCell>
        <mxCell id="aaV3_4VG9kTLFOAMbQMQ-242" value="&lt;span style=&quot;font-size: 15px;&quot;&gt;Family&lt;/span&gt;" style="text;html=1;align=center;verticalAlign=middle;whiteSpace=wrap;rounded=0;" parent="1" vertex="1">
          <mxGeometry x="914.76" y="5430" width="80" height="30" as="geometry" />
        </mxCell>
        <mxCell id="aaV3_4VG9kTLFOAMbQMQ-246" value="" style="shape=mxgraph.cisco.people.running_man;html=1;pointerEvents=1;dashed=0;fillColor=#036897;strokeColor=#ffffff;strokeWidth=2;verticalLabelPosition=bottom;verticalAlign=top;align=center;outlineConnect=0;" parent="1" vertex="1">
          <mxGeometry x="869.63" y="5315" width="20" height="20" as="geometry" />
        </mxCell>
        <mxCell id="aaV3_4VG9kTLFOAMbQMQ-247" value="Bachelors" style="swimlane;fontStyle=0;childLayout=stackLayout;horizontal=1;startSize=30;horizontalStack=0;resizeParent=1;resizeParentMax=0;resizeLast=0;collapsible=1;marginBottom=0;whiteSpace=wrap;html=1;" parent="1" vertex="1">
          <mxGeometry x="452.63" y="5320" width="140" height="90" as="geometry" />
        </mxCell>
        <mxCell id="aaV3_4VG9kTLFOAMbQMQ-248" value="Working Professional" style="text;strokeColor=none;fillColor=none;align=left;verticalAlign=middle;spacingLeft=4;spacingRight=4;overflow=hidden;points=[[0,0.5],[1,0.5]];portConstraint=eastwest;rotatable=0;whiteSpace=wrap;html=1;" parent="aaV3_4VG9kTLFOAMbQMQ-247" vertex="1">
          <mxGeometry y="30" width="140" height="30" as="geometry" />
        </mxCell>
        <mxCell id="aaV3_4VG9kTLFOAMbQMQ-249" value="Students" style="text;strokeColor=none;fillColor=none;align=left;verticalAlign=middle;spacingLeft=4;spacingRight=4;overflow=hidden;points=[[0,0.5],[1,0.5]];portConstraint=eastwest;rotatable=0;whiteSpace=wrap;html=1;" parent="aaV3_4VG9kTLFOAMbQMQ-247" vertex="1">
          <mxGeometry y="60" width="140" height="30" as="geometry" />
        </mxCell>
        <mxCell id="aaV3_4VG9kTLFOAMbQMQ-252" style="edgeStyle=orthogonalEdgeStyle;rounded=0;orthogonalLoop=1;jettySize=auto;html=1;entryX=0.988;entryY=0.176;entryDx=0;entryDy=0;entryPerimeter=0;" parent="1" source="aaV3_4VG9kTLFOAMbQMQ-246" target="aaV3_4VG9kTLFOAMbQMQ-249" edge="1">
          <mxGeometry relative="1" as="geometry">
            <Array as="points">
              <mxPoint x="879.63" y="5340" />
              <mxPoint x="610.63" y="5340" />
            </Array>
          </mxGeometry>
        </mxCell>
        <mxCell id="aaV3_4VG9kTLFOAMbQMQ-253" value="&lt;span style=&quot;font-size: 15px;&quot;&gt;Splinters&lt;/span&gt;" style="swimlane;fontStyle=0;childLayout=stackLayout;horizontal=1;startSize=30;horizontalStack=0;resizeParent=1;resizeParentMax=0;resizeLast=0;collapsible=1;marginBottom=0;whiteSpace=wrap;html=1;" parent="1" vertex="1">
          <mxGeometry x="452.63" y="5440" width="140" height="90" as="geometry" />
        </mxCell>
        <mxCell id="aaV3_4VG9kTLFOAMbQMQ-254" value="Working Professional" style="text;strokeColor=none;fillColor=none;align=left;verticalAlign=middle;spacingLeft=4;spacingRight=4;overflow=hidden;points=[[0,0.5],[1,0.5]];portConstraint=eastwest;rotatable=0;whiteSpace=wrap;html=1;" parent="aaV3_4VG9kTLFOAMbQMQ-253" vertex="1">
          <mxGeometry y="30" width="140" height="30" as="geometry" />
        </mxCell>
        <mxCell id="aaV3_4VG9kTLFOAMbQMQ-255" value="Students" style="text;strokeColor=none;fillColor=none;align=left;verticalAlign=middle;spacingLeft=4;spacingRight=4;overflow=hidden;points=[[0,0.5],[1,0.5]];portConstraint=eastwest;rotatable=0;whiteSpace=wrap;html=1;" parent="aaV3_4VG9kTLFOAMbQMQ-253" vertex="1">
          <mxGeometry y="60" width="140" height="30" as="geometry" />
        </mxCell>
        <mxCell id="aaV3_4VG9kTLFOAMbQMQ-257" value="&lt;span style=&quot;font-size: 15px;&quot;&gt;Couples&lt;/span&gt;" style="swimlane;fontStyle=0;childLayout=stackLayout;horizontal=1;startSize=30;horizontalStack=0;resizeParent=1;resizeParentMax=0;resizeLast=0;collapsible=1;marginBottom=0;whiteSpace=wrap;html=1;" parent="1" vertex="1">
          <mxGeometry x="452.63" y="5550" width="140" height="70" as="geometry" />
        </mxCell>
        <mxCell id="aaV3_4VG9kTLFOAMbQMQ-259" value="Married&lt;br&gt;Live In" style="text;strokeColor=none;fillColor=none;align=left;verticalAlign=middle;spacingLeft=4;spacingRight=4;overflow=hidden;points=[[0,0.5],[1,0.5]];portConstraint=eastwest;rotatable=0;whiteSpace=wrap;html=1;" parent="aaV3_4VG9kTLFOAMbQMQ-257" vertex="1">
          <mxGeometry y="30" width="140" height="40" as="geometry" />
        </mxCell>
        <mxCell id="aaV3_4VG9kTLFOAMbQMQ-261" value="" style="strokeWidth=2;html=1;shape=mxgraph.flowchart.annotation_1;align=left;pointerEvents=1;" parent="1" vertex="1">
          <mxGeometry x="372.63" y="5320" width="50" height="440" as="geometry" />
        </mxCell>
        <mxCell id="aaV3_4VG9kTLFOAMbQMQ-262" value="Further sub categorization&lt;div&gt;as needed&lt;/div&gt;" style="text;html=1;align=center;verticalAlign=middle;resizable=0;points=[];autosize=1;strokeColor=none;fillColor=none;" parent="1" vertex="1">
          <mxGeometry x="202.63" y="5410" width="160" height="40" as="geometry" />
        </mxCell>
        <mxCell id="aaV3_4VG9kTLFOAMbQMQ-265" style="edgeStyle=orthogonalEdgeStyle;rounded=0;orthogonalLoop=1;jettySize=auto;html=1;entryX=1.01;entryY=0.227;entryDx=0;entryDy=0;entryPerimeter=0;" parent="1" source="aaV3_4VG9kTLFOAMbQMQ-238" target="aaV3_4VG9kTLFOAMbQMQ-259" edge="1">
          <mxGeometry relative="1" as="geometry">
            <Array as="points">
              <mxPoint x="782.63" y="5405" />
              <mxPoint x="782.63" y="5540" />
              <mxPoint x="602.63" y="5540" />
              <mxPoint x="602.63" y="5589" />
            </Array>
          </mxGeometry>
        </mxCell>
        <mxCell id="aaV3_4VG9kTLFOAMbQMQ-266" value="&lt;span style=&quot;font-size: 15px;&quot;&gt;Couples&lt;/span&gt;" style="swimlane;fontStyle=0;childLayout=stackLayout;horizontal=1;startSize=30;horizontalStack=0;resizeParent=1;resizeParentMax=0;resizeLast=0;collapsible=1;marginBottom=0;whiteSpace=wrap;html=1;" parent="1" vertex="1">
          <mxGeometry x="452.63" y="5659" width="140" height="70" as="geometry" />
        </mxCell>
        <mxCell id="aaV3_4VG9kTLFOAMbQMQ-267" value="Married&lt;br&gt;Live In" style="text;strokeColor=none;fillColor=none;align=left;verticalAlign=middle;spacingLeft=4;spacingRight=4;overflow=hidden;points=[[0,0.5],[1,0.5]];portConstraint=eastwest;rotatable=0;whiteSpace=wrap;html=1;" parent="aaV3_4VG9kTLFOAMbQMQ-266" vertex="1">
          <mxGeometry y="30" width="140" height="40" as="geometry" />
        </mxCell>
        <mxCell id="aaV3_4VG9kTLFOAMbQMQ-268" style="edgeStyle=orthogonalEdgeStyle;rounded=0;orthogonalLoop=1;jettySize=auto;html=1;entryX=1.029;entryY=0.336;entryDx=0;entryDy=0;entryPerimeter=0;" parent="1" source="aaV3_4VG9kTLFOAMbQMQ-241" target="aaV3_4VG9kTLFOAMbQMQ-267" edge="1">
          <mxGeometry relative="1" as="geometry">
            <Array as="points">
              <mxPoint x="822.63" y="5445" />
              <mxPoint x="822.63" y="5702" />
            </Array>
          </mxGeometry>
        </mxCell>
        <mxCell id="I9zTokaMYXYdYf4xdTNR-57" value="&lt;span&gt;&lt;/span&gt;" style="rounded=0;whiteSpace=wrap;html=1;" parent="1" vertex="1">
          <mxGeometry x="544.26" y="840" width="678.74" height="540" as="geometry" />
        </mxCell>
        <mxCell id="I9zTokaMYXYdYf4xdTNR-58" value="" style="endArrow=none;html=1;rounded=0;exitX=-0.002;exitY=0.121;exitDx=0;exitDy=0;entryX=0.998;entryY=0.125;entryDx=0;entryDy=0;entryPerimeter=0;exitPerimeter=0;" parent="1" source="I9zTokaMYXYdYf4xdTNR-57" target="I9zTokaMYXYdYf4xdTNR-57" edge="1">
          <mxGeometry width="50" height="50" relative="1" as="geometry">
            <mxPoint x="804.2600000000002" y="2139" as="sourcePoint" />
            <mxPoint x="854.2600000000002" y="2089" as="targetPoint" />
          </mxGeometry>
        </mxCell>
        <mxCell id="I9zTokaMYXYdYf4xdTNR-59" value="&lt;b&gt;&lt;font style=&quot;font-size: 17px;&quot;&gt;Next 2/10&lt;/font&gt;&lt;/b&gt;" style="rounded=1;whiteSpace=wrap;html=1;" parent="1" vertex="1">
          <mxGeometry x="765.1300000000001" y="1319" width="180" height="30" as="geometry" />
        </mxCell>
        <mxCell id="I9zTokaMYXYdYf4xdTNR-60" value="&lt;div style=&quot;text-align: left;&quot;&gt;&lt;span style=&quot;white-space-collapse: preserve;&quot;&gt;&lt;b style=&quot;&quot;&gt;&lt;font style=&quot;font-size: 18px;&quot;&gt;Who is filling : Tenant&lt;/font&gt;&lt;/b&gt;&lt;/span&gt;&lt;/div&gt;" style="text;html=1;align=center;verticalAlign=middle;whiteSpace=wrap;rounded=0;" parent="1" vertex="1">
          <mxGeometry x="748" y="930" width="220" height="39.5" as="geometry" />
        </mxCell>
        <mxCell id="I9zTokaMYXYdYf4xdTNR-61" value="&lt;span style=&quot;font-size: 15px;&quot;&gt;&lt;u&gt;Select Type&lt;/u&gt;&lt;/span&gt;" style="text;html=1;align=center;verticalAlign=middle;whiteSpace=wrap;rounded=0;" parent="1" vertex="1">
          <mxGeometry x="798" y="970" width="100" height="30" as="geometry" />
        </mxCell>
        <mxCell id="I9zTokaMYXYdYf4xdTNR-62" value="&lt;span style=&quot;font-size: 15px;&quot;&gt;Bachelors&lt;/span&gt;" style="text;html=1;align=center;verticalAlign=middle;whiteSpace=wrap;rounded=0;" parent="1" vertex="1">
          <mxGeometry x="813" y="1000" width="80" height="30" as="geometry" />
        </mxCell>
        <mxCell id="I9zTokaMYXYdYf4xdTNR-63" style="edgeStyle=orthogonalEdgeStyle;rounded=0;orthogonalLoop=1;jettySize=auto;html=1;entryX=1;entryY=0.5;entryDx=0;entryDy=0;" parent="1" source="I9zTokaMYXYdYf4xdTNR-64" target="I9zTokaMYXYdYf4xdTNR-76" edge="1">
          <mxGeometry relative="1" as="geometry" />
        </mxCell>
        <mxCell id="I9zTokaMYXYdYf4xdTNR-64" value="" style="shape=mxgraph.cisco.people.standing_woman;html=1;pointerEvents=1;dashed=0;fillColor=#036897;strokeColor=#ffffff;strokeWidth=2;verticalLabelPosition=bottom;verticalAlign=top;align=center;outlineConnect=0;" parent="1" vertex="1">
          <mxGeometry x="772.1300000000001" y="1040" width="13" height="30" as="geometry" />
        </mxCell>
        <mxCell id="I9zTokaMYXYdYf4xdTNR-65" value="&lt;span style=&quot;font-size: 15px;&quot;&gt;Splinters&lt;/span&gt;" style="text;html=1;align=center;verticalAlign=middle;whiteSpace=wrap;rounded=0;" parent="1" vertex="1">
          <mxGeometry x="815.1300000000001" y="1040" width="80" height="30" as="geometry" />
        </mxCell>
        <mxCell id="I9zTokaMYXYdYf4xdTNR-66" value="" style="verticalLabelPosition=bottom;verticalAlign=top;html=1;shape=mxgraph.basic.tick" parent="1" vertex="1">
          <mxGeometry x="921.3899999999999" y="1085" width="25" height="20" as="geometry" />
        </mxCell>
        <mxCell id="I9zTokaMYXYdYf4xdTNR-67" value="" style="shape=mxgraph.cisco.people.standing_woman;html=1;pointerEvents=1;dashed=0;fillColor=#036897;strokeColor=#ffffff;strokeWidth=2;verticalLabelPosition=bottom;verticalAlign=top;align=center;outlineConnect=0;" parent="1" vertex="1">
          <mxGeometry x="772.1300000000001" y="1080" width="13" height="30" as="geometry" />
        </mxCell>
        <mxCell id="I9zTokaMYXYdYf4xdTNR-68" value="&lt;span style=&quot;font-size: 15px;&quot;&gt;Couples&lt;/span&gt;" style="text;html=1;align=center;verticalAlign=middle;whiteSpace=wrap;rounded=0;" parent="1" vertex="1">
          <mxGeometry x="815.1300000000001" y="1080" width="80" height="30" as="geometry" />
        </mxCell>
        <mxCell id="I9zTokaMYXYdYf4xdTNR-69" value="" style="shape=mxgraph.cisco.people.standing_woman;html=1;pointerEvents=1;dashed=0;fillColor=#036897;strokeColor=#ffffff;strokeWidth=2;verticalLabelPosition=bottom;verticalAlign=top;align=center;outlineConnect=0;" parent="1" vertex="1">
          <mxGeometry x="772.1300000000001" y="1120" width="13" height="30" as="geometry" />
        </mxCell>
        <mxCell id="I9zTokaMYXYdYf4xdTNR-70" value="&lt;span style=&quot;font-size: 15px;&quot;&gt;Family&lt;/span&gt;" style="text;html=1;align=center;verticalAlign=middle;whiteSpace=wrap;rounded=0;" parent="1" vertex="1">
          <mxGeometry x="815.1300000000001" y="1120" width="80" height="30" as="geometry" />
        </mxCell>
        <mxCell id="I9zTokaMYXYdYf4xdTNR-71" value="" style="shape=mxgraph.cisco.people.running_man;html=1;pointerEvents=1;dashed=0;fillColor=#036897;strokeColor=#ffffff;strokeWidth=2;verticalLabelPosition=bottom;verticalAlign=top;align=center;outlineConnect=0;" parent="1" vertex="1">
          <mxGeometry x="770" y="1005" width="20" height="20" as="geometry" />
        </mxCell>
        <mxCell id="I9zTokaMYXYdYf4xdTNR-72" value="Bachelors" style="swimlane;fontStyle=0;childLayout=stackLayout;horizontal=1;startSize=30;horizontalStack=0;resizeParent=1;resizeParentMax=0;resizeLast=0;collapsible=1;marginBottom=0;whiteSpace=wrap;html=1;" parent="1" vertex="1">
          <mxGeometry x="353" y="1010" width="140" height="90" as="geometry" />
        </mxCell>
        <mxCell id="I9zTokaMYXYdYf4xdTNR-73" value="Working Professional" style="text;strokeColor=none;fillColor=none;align=left;verticalAlign=middle;spacingLeft=4;spacingRight=4;overflow=hidden;points=[[0,0.5],[1,0.5]];portConstraint=eastwest;rotatable=0;whiteSpace=wrap;html=1;" parent="I9zTokaMYXYdYf4xdTNR-72" vertex="1">
          <mxGeometry y="30" width="140" height="30" as="geometry" />
        </mxCell>
        <mxCell id="I9zTokaMYXYdYf4xdTNR-74" value="Students" style="text;strokeColor=none;fillColor=none;align=left;verticalAlign=middle;spacingLeft=4;spacingRight=4;overflow=hidden;points=[[0,0.5],[1,0.5]];portConstraint=eastwest;rotatable=0;whiteSpace=wrap;html=1;" parent="I9zTokaMYXYdYf4xdTNR-72" vertex="1">
          <mxGeometry y="60" width="140" height="30" as="geometry" />
        </mxCell>
        <mxCell id="I9zTokaMYXYdYf4xdTNR-75" style="edgeStyle=orthogonalEdgeStyle;rounded=0;orthogonalLoop=1;jettySize=auto;html=1;entryX=0.988;entryY=0.176;entryDx=0;entryDy=0;entryPerimeter=0;" parent="1" source="I9zTokaMYXYdYf4xdTNR-71" target="I9zTokaMYXYdYf4xdTNR-74" edge="1">
          <mxGeometry relative="1" as="geometry">
            <Array as="points">
              <mxPoint x="780" y="1030" />
              <mxPoint x="511" y="1030" />
            </Array>
          </mxGeometry>
        </mxCell>
        <mxCell id="I9zTokaMYXYdYf4xdTNR-76" value="&lt;span style=&quot;font-size: 15px;&quot;&gt;Splinters&lt;/span&gt;" style="swimlane;fontStyle=0;childLayout=stackLayout;horizontal=1;startSize=30;horizontalStack=0;resizeParent=1;resizeParentMax=0;resizeLast=0;collapsible=1;marginBottom=0;whiteSpace=wrap;html=1;" parent="1" vertex="1">
          <mxGeometry x="353" y="1130" width="140" height="90" as="geometry" />
        </mxCell>
        <mxCell id="I9zTokaMYXYdYf4xdTNR-77" value="Working Professional" style="text;strokeColor=none;fillColor=none;align=left;verticalAlign=middle;spacingLeft=4;spacingRight=4;overflow=hidden;points=[[0,0.5],[1,0.5]];portConstraint=eastwest;rotatable=0;whiteSpace=wrap;html=1;" parent="I9zTokaMYXYdYf4xdTNR-76" vertex="1">
          <mxGeometry y="30" width="140" height="30" as="geometry" />
        </mxCell>
        <mxCell id="I9zTokaMYXYdYf4xdTNR-78" value="Students" style="text;strokeColor=none;fillColor=none;align=left;verticalAlign=middle;spacingLeft=4;spacingRight=4;overflow=hidden;points=[[0,0.5],[1,0.5]];portConstraint=eastwest;rotatable=0;whiteSpace=wrap;html=1;" parent="I9zTokaMYXYdYf4xdTNR-76" vertex="1">
          <mxGeometry y="60" width="140" height="30" as="geometry" />
        </mxCell>
        <mxCell id="I9zTokaMYXYdYf4xdTNR-79" value="&lt;span style=&quot;font-size: 15px;&quot;&gt;Couples&lt;/span&gt;" style="swimlane;fontStyle=0;childLayout=stackLayout;horizontal=1;startSize=30;horizontalStack=0;resizeParent=1;resizeParentMax=0;resizeLast=0;collapsible=1;marginBottom=0;whiteSpace=wrap;html=1;" parent="1" vertex="1">
          <mxGeometry x="353" y="1240" width="140" height="70" as="geometry" />
        </mxCell>
        <mxCell id="I9zTokaMYXYdYf4xdTNR-80" value="Married&lt;br&gt;Live In" style="text;strokeColor=none;fillColor=none;align=left;verticalAlign=middle;spacingLeft=4;spacingRight=4;overflow=hidden;points=[[0,0.5],[1,0.5]];portConstraint=eastwest;rotatable=0;whiteSpace=wrap;html=1;" parent="I9zTokaMYXYdYf4xdTNR-79" vertex="1">
          <mxGeometry y="30" width="140" height="40" as="geometry" />
        </mxCell>
        <mxCell id="I9zTokaMYXYdYf4xdTNR-81" value="Further sub categorization&lt;div&gt;as needed&lt;/div&gt;" style="text;html=1;align=center;verticalAlign=middle;resizable=0;points=[];autosize=1;strokeColor=none;fillColor=none;" parent="1" vertex="1">
          <mxGeometry x="340" y="920" width="160" height="40" as="geometry" />
        </mxCell>
        <mxCell id="I9zTokaMYXYdYf4xdTNR-82" style="edgeStyle=orthogonalEdgeStyle;rounded=0;orthogonalLoop=1;jettySize=auto;html=1;entryX=1.01;entryY=0.227;entryDx=0;entryDy=0;entryPerimeter=0;" parent="1" source="I9zTokaMYXYdYf4xdTNR-67" target="I9zTokaMYXYdYf4xdTNR-80" edge="1">
          <mxGeometry relative="1" as="geometry">
            <Array as="points">
              <mxPoint x="683" y="1095" />
              <mxPoint x="683" y="1230" />
              <mxPoint x="503" y="1230" />
              <mxPoint x="503" y="1279" />
            </Array>
          </mxGeometry>
        </mxCell>
        <mxCell id="I9zTokaMYXYdYf4xdTNR-83" value="&lt;span style=&quot;font-size: 15px;&quot;&gt;Couples&lt;/span&gt;" style="swimlane;fontStyle=0;childLayout=stackLayout;horizontal=1;startSize=30;horizontalStack=0;resizeParent=1;resizeParentMax=0;resizeLast=0;collapsible=1;marginBottom=0;whiteSpace=wrap;html=1;" parent="1" vertex="1">
          <mxGeometry x="353" y="1349" width="140" height="70" as="geometry" />
        </mxCell>
        <mxCell id="I9zTokaMYXYdYf4xdTNR-84" value="Married&lt;br&gt;Live In" style="text;strokeColor=none;fillColor=none;align=left;verticalAlign=middle;spacingLeft=4;spacingRight=4;overflow=hidden;points=[[0,0.5],[1,0.5]];portConstraint=eastwest;rotatable=0;whiteSpace=wrap;html=1;" parent="I9zTokaMYXYdYf4xdTNR-83" vertex="1">
          <mxGeometry y="30" width="140" height="40" as="geometry" />
        </mxCell>
        <mxCell id="I9zTokaMYXYdYf4xdTNR-85" style="edgeStyle=orthogonalEdgeStyle;rounded=0;orthogonalLoop=1;jettySize=auto;html=1;entryX=1.029;entryY=0.336;entryDx=0;entryDy=0;entryPerimeter=0;" parent="1" source="I9zTokaMYXYdYf4xdTNR-69" target="I9zTokaMYXYdYf4xdTNR-84" edge="1">
          <mxGeometry relative="1" as="geometry">
            <Array as="points">
              <mxPoint x="723" y="1135" />
              <mxPoint x="723" y="1392" />
            </Array>
          </mxGeometry>
        </mxCell>
        <mxCell id="I9zTokaMYXYdYf4xdTNR-90" value="&lt;span&gt;&lt;/span&gt;" style="rounded=0;whiteSpace=wrap;html=1;" parent="1" vertex="1">
          <mxGeometry x="1364.2600000000002" y="840" width="698.74" height="540" as="geometry" />
        </mxCell>
        <mxCell id="I9zTokaMYXYdYf4xdTNR-91" value="" style="endArrow=none;html=1;rounded=0;exitX=-0.002;exitY=0.121;exitDx=0;exitDy=0;entryX=0.998;entryY=0.125;entryDx=0;entryDy=0;entryPerimeter=0;exitPerimeter=0;" parent="1" source="I9zTokaMYXYdYf4xdTNR-90" target="I9zTokaMYXYdYf4xdTNR-90" edge="1">
          <mxGeometry width="50" height="50" relative="1" as="geometry">
            <mxPoint x="1684.2600000000002" y="1310" as="sourcePoint" />
            <mxPoint x="1734.2600000000002" y="1260" as="targetPoint" />
          </mxGeometry>
        </mxCell>
        <mxCell id="I9zTokaMYXYdYf4xdTNR-96" value="&lt;b&gt;&lt;font style=&quot;font-size: 17px;&quot;&gt;Next 2/10&lt;/font&gt;&lt;/b&gt;" style="rounded=1;whiteSpace=wrap;html=1;" parent="1" vertex="1">
          <mxGeometry x="1596.7600000000002" y="1319" width="180" height="30" as="geometry" />
        </mxCell>
        <mxCell id="I9zTokaMYXYdYf4xdTNR-101" value="&lt;div style=&quot;text-align: left;&quot;&gt;&lt;span style=&quot;white-space-collapse: preserve;&quot;&gt;&lt;b style=&quot;&quot;&gt;&lt;font style=&quot;font-size: 18px;&quot;&gt;Who is filling : Tenant&lt;/font&gt;&lt;/b&gt;&lt;/span&gt;&lt;/div&gt;" style="text;html=1;align=center;verticalAlign=middle;whiteSpace=wrap;rounded=0;" parent="1" vertex="1">
          <mxGeometry x="1603" y="920" width="220" height="39.5" as="geometry" />
        </mxCell>
        <mxCell id="I9zTokaMYXYdYf4xdTNR-102" value="&lt;font style=&quot;font-size: 15px;&quot;&gt;No. Of people staying&lt;/font&gt;" style="rounded=1;fillColor=#F1F2F4;strokeColor=none;html=1;whiteSpace=wrap;fontColor=#596780;align=left;fontSize=12;spacingLeft=10;sketch=0;" parent="1" vertex="1">
          <mxGeometry x="1633" y="1030" width="160" height="45" as="geometry" />
        </mxCell>
        <mxCell id="I9zTokaMYXYdYf4xdTNR-103" value="" style="shape=triangle;direction=south;fillColor=#596780;strokeColor=none;html=1;sketch=0;" parent="I9zTokaMYXYdYf4xdTNR-102" vertex="1">
          <mxGeometry x="1" y="0.5" width="12" height="6" relative="1" as="geometry">
            <mxPoint x="-20" y="-3" as="offset" />
          </mxGeometry>
        </mxCell>
        <mxCell id="I9zTokaMYXYdYf4xdTNR-104" value="" style="verticalLabelPosition=bottom;sketch=0;html=1;fillColor=#282828;strokeColor=none;verticalAlign=top;pointerEvents=1;align=center;shape=mxgraph.cisco_safe.people_places_things_icons.icon1;" parent="1" vertex="1">
          <mxGeometry x="1543" y="1027.5" width="46.5" height="50" as="geometry" />
        </mxCell>
        <mxCell id="I9zTokaMYXYdYf4xdTNR-105" value="Bachelors" style="swimlane;fontStyle=0;childLayout=stackLayout;horizontal=1;startSize=30;horizontalStack=0;resizeParent=1;resizeParentMax=0;resizeLast=0;collapsible=1;marginBottom=0;whiteSpace=wrap;html=1;" parent="1" vertex="1">
          <mxGeometry x="1233" y="1030" width="140" height="90" as="geometry" />
        </mxCell>
        <mxCell id="I9zTokaMYXYdYf4xdTNR-106" value="Adult" style="text;strokeColor=none;fillColor=none;align=left;verticalAlign=middle;spacingLeft=4;spacingRight=4;overflow=hidden;points=[[0,0.5],[1,0.5]];portConstraint=eastwest;rotatable=0;whiteSpace=wrap;html=1;" parent="I9zTokaMYXYdYf4xdTNR-105" vertex="1">
          <mxGeometry y="30" width="140" height="30" as="geometry" />
        </mxCell>
        <mxCell id="I9zTokaMYXYdYf4xdTNR-107" value="Kids" style="text;strokeColor=none;fillColor=none;align=left;verticalAlign=middle;spacingLeft=4;spacingRight=4;overflow=hidden;points=[[0,0.5],[1,0.5]];portConstraint=eastwest;rotatable=0;whiteSpace=wrap;html=1;" parent="I9zTokaMYXYdYf4xdTNR-105" vertex="1">
          <mxGeometry y="60" width="140" height="30" as="geometry" />
        </mxCell>
        <mxCell id="I9zTokaMYXYdYf4xdTNR-108" style="edgeStyle=orthogonalEdgeStyle;rounded=0;orthogonalLoop=1;jettySize=auto;html=1;entryX=0.439;entryY=1.099;entryDx=0;entryDy=0;entryPerimeter=0;" parent="1" source="I9zTokaMYXYdYf4xdTNR-106" target="I9zTokaMYXYdYf4xdTNR-104" edge="1">
          <mxGeometry relative="1" as="geometry" />
        </mxCell>
        <mxCell id="I9zTokaMYXYdYf4xdTNR-109" value="&lt;span&gt;&lt;/span&gt;" style="rounded=0;whiteSpace=wrap;html=1;" parent="1" vertex="1">
          <mxGeometry x="2134.4" y="840" width="698.74" height="540" as="geometry" />
        </mxCell>
        <mxCell id="I9zTokaMYXYdYf4xdTNR-110" value="" style="endArrow=none;html=1;rounded=0;exitX=-0.002;exitY=0.121;exitDx=0;exitDy=0;entryX=0.998;entryY=0.125;entryDx=0;entryDy=0;entryPerimeter=0;exitPerimeter=0;" parent="1" source="I9zTokaMYXYdYf4xdTNR-109" target="I9zTokaMYXYdYf4xdTNR-109" edge="1">
          <mxGeometry width="50" height="50" relative="1" as="geometry">
            <mxPoint x="2454.4" y="1310" as="sourcePoint" />
            <mxPoint x="2504.4" y="1260" as="targetPoint" />
          </mxGeometry>
        </mxCell>
        <mxCell id="I9zTokaMYXYdYf4xdTNR-111" value="&lt;b&gt;&lt;font style=&quot;font-size: 17px;&quot;&gt;Next 2/10&lt;/font&gt;&lt;/b&gt;" style="rounded=1;whiteSpace=wrap;html=1;" parent="1" vertex="1">
          <mxGeometry x="2366.9" y="1319" width="180" height="30" as="geometry" />
        </mxCell>
        <mxCell id="I9zTokaMYXYdYf4xdTNR-112" value="&lt;div style=&quot;text-align: left;&quot;&gt;&lt;span style=&quot;white-space-collapse: preserve;&quot;&gt;&lt;b style=&quot;&quot;&gt;&lt;font style=&quot;font-size: 18px;&quot;&gt;Who is filling : Tenant&lt;/font&gt;&lt;/b&gt;&lt;/span&gt;&lt;/div&gt;" style="text;html=1;align=center;verticalAlign=middle;whiteSpace=wrap;rounded=0;" parent="1" vertex="1">
          <mxGeometry x="2373.14" y="907" width="220" height="39.5" as="geometry" />
        </mxCell>
        <mxCell id="I9zTokaMYXYdYf4xdTNR-128" value="&lt;span style=&quot;font-size: 15px;&quot;&gt;* First Name&lt;/span&gt;" style="text;html=1;align=center;verticalAlign=middle;whiteSpace=wrap;rounded=0;" parent="1" vertex="1">
          <mxGeometry x="2169.9" y="980.5" width="91" height="30" as="geometry" />
        </mxCell>
        <mxCell id="I9zTokaMYXYdYf4xdTNR-129" value="" style="rounded=1;whiteSpace=wrap;html=1;" parent="1" vertex="1">
          <mxGeometry x="2281.9" y="978" width="85" height="35" as="geometry" />
        </mxCell>
        <mxCell id="I9zTokaMYXYdYf4xdTNR-130" value="&lt;span style=&quot;font-size: 15px;&quot;&gt;* Last Name&lt;/span&gt;" style="text;html=1;align=center;verticalAlign=middle;whiteSpace=wrap;rounded=0;" parent="1" vertex="1">
          <mxGeometry x="2169.9" y="1023" width="93" height="30" as="geometry" />
        </mxCell>
        <mxCell id="I9zTokaMYXYdYf4xdTNR-131" value="" style="rounded=1;whiteSpace=wrap;html=1;" parent="1" vertex="1">
          <mxGeometry x="2281.9" y="1023" width="85" height="35" as="geometry" />
        </mxCell>
        <mxCell id="I9zTokaMYXYdYf4xdTNR-132" value="&lt;span style=&quot;font-size: 15px;&quot;&gt;* Email&lt;/span&gt;" style="text;html=1;align=center;verticalAlign=middle;whiteSpace=wrap;rounded=0;" parent="1" vertex="1">
          <mxGeometry x="2180.9" y="1233" width="80" height="30" as="geometry" />
        </mxCell>
        <mxCell id="I9zTokaMYXYdYf4xdTNR-133" value="" style="rounded=1;whiteSpace=wrap;html=1;" parent="1" vertex="1">
          <mxGeometry x="2281.9" y="1230.5" width="85" height="35" as="geometry" />
        </mxCell>
        <mxCell id="I9zTokaMYXYdYf4xdTNR-134" value="&lt;span style=&quot;font-size: 15px;&quot;&gt;* Phone&lt;/span&gt;" style="text;html=1;align=center;verticalAlign=middle;whiteSpace=wrap;rounded=0;" parent="1" vertex="1">
          <mxGeometry x="2182.9" y="1275.5" width="80" height="30" as="geometry" />
        </mxCell>
        <mxCell id="I9zTokaMYXYdYf4xdTNR-135" value="" style="rounded=1;whiteSpace=wrap;html=1;" parent="1" vertex="1">
          <mxGeometry x="2281.9" y="1273" width="85" height="35" as="geometry" />
        </mxCell>
        <mxCell id="I9zTokaMYXYdYf4xdTNR-136" value="&lt;span style=&quot;font-size: 15px;&quot;&gt;* Gender&lt;/span&gt;" style="text;html=1;align=center;verticalAlign=middle;whiteSpace=wrap;rounded=0;" parent="1" vertex="1">
          <mxGeometry x="2167.9" y="1073" width="93" height="30" as="geometry" />
        </mxCell>
        <mxCell id="I9zTokaMYXYdYf4xdTNR-137" value="&lt;span style=&quot;white-space-collapse: preserve;&quot;&gt;&lt;font style=&quot;font-size: 17px;&quot;&gt;&lt;u style=&quot;&quot;&gt;&lt;b style=&quot;&quot;&gt;Tenant Details : 1&lt;/b&gt;&lt;/u&gt;&lt;/font&gt;&lt;/span&gt;" style="text;html=1;align=center;verticalAlign=middle;whiteSpace=wrap;rounded=0;" parent="1" vertex="1">
          <mxGeometry x="2162.9" y="938.5" width="147" height="39.5" as="geometry" />
        </mxCell>
        <mxCell id="I9zTokaMYXYdYf4xdTNR-138" value="" style="rounded=1;whiteSpace=wrap;html=1;" parent="1" vertex="1">
          <mxGeometry x="2281.9" y="1080" width="85" height="35" as="geometry" />
        </mxCell>
        <mxCell id="I9zTokaMYXYdYf4xdTNR-139" value="&lt;span style=&quot;font-size: 15px;&quot;&gt;* First Name&lt;/span&gt;" style="text;html=1;align=center;verticalAlign=middle;whiteSpace=wrap;rounded=0;" parent="1" vertex="1">
          <mxGeometry x="2380.14" y="983" width="91" height="30" as="geometry" />
        </mxCell>
        <mxCell id="I9zTokaMYXYdYf4xdTNR-140" value="" style="rounded=1;whiteSpace=wrap;html=1;" parent="1" vertex="1">
          <mxGeometry x="2492.14" y="980.5" width="85" height="35" as="geometry" />
        </mxCell>
        <mxCell id="I9zTokaMYXYdYf4xdTNR-141" value="&lt;span style=&quot;font-size: 15px;&quot;&gt;* Last Name&lt;/span&gt;" style="text;html=1;align=center;verticalAlign=middle;whiteSpace=wrap;rounded=0;" parent="1" vertex="1">
          <mxGeometry x="2380.14" y="1025.5" width="93" height="30" as="geometry" />
        </mxCell>
        <mxCell id="I9zTokaMYXYdYf4xdTNR-142" value="" style="rounded=1;whiteSpace=wrap;html=1;" parent="1" vertex="1">
          <mxGeometry x="2492.14" y="1025.5" width="85" height="35" as="geometry" />
        </mxCell>
        <mxCell id="I9zTokaMYXYdYf4xdTNR-143" value="&lt;span style=&quot;font-size: 15px;&quot;&gt;* Email&lt;/span&gt;" style="text;html=1;align=center;verticalAlign=middle;whiteSpace=wrap;rounded=0;" parent="1" vertex="1">
          <mxGeometry x="2391.14" y="1235.5" width="80" height="30" as="geometry" />
        </mxCell>
        <mxCell id="I9zTokaMYXYdYf4xdTNR-144" value="" style="rounded=1;whiteSpace=wrap;html=1;" parent="1" vertex="1">
          <mxGeometry x="2492.14" y="1233" width="85" height="35" as="geometry" />
        </mxCell>
        <mxCell id="I9zTokaMYXYdYf4xdTNR-145" value="&lt;span style=&quot;font-size: 15px;&quot;&gt;* Phone&lt;/span&gt;" style="text;html=1;align=center;verticalAlign=middle;whiteSpace=wrap;rounded=0;" parent="1" vertex="1">
          <mxGeometry x="2393.14" y="1278" width="80" height="30" as="geometry" />
        </mxCell>
        <mxCell id="I9zTokaMYXYdYf4xdTNR-146" value="" style="rounded=1;whiteSpace=wrap;html=1;" parent="1" vertex="1">
          <mxGeometry x="2492.14" y="1275.5" width="85" height="35" as="geometry" />
        </mxCell>
        <mxCell id="I9zTokaMYXYdYf4xdTNR-147" value="&lt;span style=&quot;font-size: 15px;&quot;&gt;* Gender&lt;/span&gt;" style="text;html=1;align=center;verticalAlign=middle;whiteSpace=wrap;rounded=0;" parent="1" vertex="1">
          <mxGeometry x="2378.14" y="1075.5" width="93" height="30" as="geometry" />
        </mxCell>
        <mxCell id="I9zTokaMYXYdYf4xdTNR-148" value="&lt;span style=&quot;white-space-collapse: preserve;&quot;&gt;&lt;font style=&quot;font-size: 17px;&quot;&gt;&lt;u style=&quot;&quot;&gt;&lt;b style=&quot;&quot;&gt;Tenant Details : 2&lt;/b&gt;&lt;/u&gt;&lt;/font&gt;&lt;/span&gt;" style="text;html=1;align=center;verticalAlign=middle;whiteSpace=wrap;rounded=0;" parent="1" vertex="1">
          <mxGeometry x="2373.14" y="941" width="147" height="39.5" as="geometry" />
        </mxCell>
        <mxCell id="I9zTokaMYXYdYf4xdTNR-149" value="" style="rounded=1;whiteSpace=wrap;html=1;" parent="1" vertex="1">
          <mxGeometry x="2492.14" y="1082.5" width="85" height="35" as="geometry" />
        </mxCell>
        <mxCell id="I9zTokaMYXYdYf4xdTNR-150" value="&lt;span style=&quot;font-size: 15px;&quot;&gt;* First Name&lt;/span&gt;" style="text;html=1;align=center;verticalAlign=middle;whiteSpace=wrap;rounded=0;" parent="1" vertex="1">
          <mxGeometry x="2600.14" y="983" width="91" height="30" as="geometry" />
        </mxCell>
        <mxCell id="I9zTokaMYXYdYf4xdTNR-151" value="" style="rounded=1;whiteSpace=wrap;html=1;" parent="1" vertex="1">
          <mxGeometry x="2712.14" y="980.5" width="85" height="35" as="geometry" />
        </mxCell>
        <mxCell id="I9zTokaMYXYdYf4xdTNR-152" value="&lt;span style=&quot;font-size: 15px;&quot;&gt;* Last Name&lt;/span&gt;" style="text;html=1;align=center;verticalAlign=middle;whiteSpace=wrap;rounded=0;" parent="1" vertex="1">
          <mxGeometry x="2600.14" y="1025.5" width="93" height="30" as="geometry" />
        </mxCell>
        <mxCell id="I9zTokaMYXYdYf4xdTNR-153" value="" style="rounded=1;whiteSpace=wrap;html=1;" parent="1" vertex="1">
          <mxGeometry x="2712.14" y="1025.5" width="85" height="35" as="geometry" />
        </mxCell>
        <mxCell id="I9zTokaMYXYdYf4xdTNR-154" value="&lt;span style=&quot;font-size: 15px;&quot;&gt;* Email&lt;/span&gt;" style="text;html=1;align=center;verticalAlign=middle;whiteSpace=wrap;rounded=0;" parent="1" vertex="1">
          <mxGeometry x="2611.14" y="1235.5" width="80" height="30" as="geometry" />
        </mxCell>
        <mxCell id="I9zTokaMYXYdYf4xdTNR-155" value="" style="rounded=1;whiteSpace=wrap;html=1;" parent="1" vertex="1">
          <mxGeometry x="2712.14" y="1233" width="85" height="35" as="geometry" />
        </mxCell>
        <mxCell id="I9zTokaMYXYdYf4xdTNR-156" value="&lt;span style=&quot;font-size: 15px;&quot;&gt;* Phone&lt;/span&gt;" style="text;html=1;align=center;verticalAlign=middle;whiteSpace=wrap;rounded=0;" parent="1" vertex="1">
          <mxGeometry x="2613.14" y="1278" width="80" height="30" as="geometry" />
        </mxCell>
        <mxCell id="I9zTokaMYXYdYf4xdTNR-157" value="" style="rounded=1;whiteSpace=wrap;html=1;" parent="1" vertex="1">
          <mxGeometry x="2712.14" y="1275.5" width="85" height="35" as="geometry" />
        </mxCell>
        <mxCell id="I9zTokaMYXYdYf4xdTNR-158" value="&lt;span style=&quot;font-size: 15px;&quot;&gt;* Gender&lt;/span&gt;" style="text;html=1;align=center;verticalAlign=middle;whiteSpace=wrap;rounded=0;" parent="1" vertex="1">
          <mxGeometry x="2598.14" y="1075.5" width="93" height="30" as="geometry" />
        </mxCell>
        <mxCell id="I9zTokaMYXYdYf4xdTNR-159" value="&lt;span style=&quot;white-space-collapse: preserve;&quot;&gt;&lt;font style=&quot;font-size: 17px;&quot;&gt;&lt;u style=&quot;&quot;&gt;&lt;b style=&quot;&quot;&gt;Tenant Details : 3&lt;/b&gt;&lt;/u&gt;&lt;/font&gt;&lt;/span&gt;" style="text;html=1;align=center;verticalAlign=middle;whiteSpace=wrap;rounded=0;" parent="1" vertex="1">
          <mxGeometry x="2593.14" y="941" width="147" height="39.5" as="geometry" />
        </mxCell>
        <mxCell id="I9zTokaMYXYdYf4xdTNR-160" value="" style="rounded=1;whiteSpace=wrap;html=1;" parent="1" vertex="1">
          <mxGeometry x="2712.14" y="1082.5" width="85" height="35" as="geometry" />
        </mxCell>
        <mxCell id="I9zTokaMYXYdYf4xdTNR-164" style="edgeStyle=orthogonalEdgeStyle;rounded=0;orthogonalLoop=1;jettySize=auto;html=1;entryX=0;entryY=0;entryDx=0;entryDy=0;" parent="1" target="I9zTokaMYXYdYf4xdTNR-134" edge="1">
          <mxGeometry relative="1" as="geometry">
            <mxPoint x="2133" y="1450" as="sourcePoint" />
          </mxGeometry>
        </mxCell>
        <mxCell id="I9zTokaMYXYdYf4xdTNR-166" value="&lt;h1 style=&quot;margin-top: 0px;&quot;&gt;&lt;br&gt;&lt;/h1&gt;" style="text;html=1;whiteSpace=wrap;overflow=hidden;rounded=0;" parent="1" vertex="1">
          <mxGeometry x="2065.26" y="1949.5" width="180" height="120" as="geometry" />
        </mxCell>
        <mxCell id="I9zTokaMYXYdYf4xdTNR-167" value="&lt;font style=&quot;font-size: 18px;&quot;&gt;Any of these is required&lt;/font&gt;" style="rounded=1;whiteSpace=wrap;html=1;strokeWidth=2;fillWeight=4;hachureGap=8;hachureAngle=45;fillColor=#1ba1e2;sketch=1;" parent="1" vertex="1">
          <mxGeometry x="2014.4" y="1419" width="120" height="60" as="geometry" />
        </mxCell>
        <mxCell id="I9zTokaMYXYdYf4xdTNR-168" value="" style="shape=flexArrow;endArrow=classic;html=1;rounded=0;endWidth=50;endSize=34.550000000000004;width=56.66666666666667;" parent="1" edge="1">
          <mxGeometry width="50" height="50" relative="1" as="geometry">
            <mxPoint x="7" y="49.99999999999997" as="sourcePoint" />
            <mxPoint x="517" y="49.99999999999997" as="targetPoint" />
            <Array as="points">
              <mxPoint x="427" y="49.99999999999997" />
            </Array>
          </mxGeometry>
        </mxCell>
        <mxCell id="I9zTokaMYXYdYf4xdTNR-169" value="&lt;span style=&quot;font-size: 24px;&quot;&gt;&lt;b&gt;Common flow&lt;/b&gt;&lt;/span&gt;" style="edgeLabel;html=1;align=center;verticalAlign=middle;resizable=0;points=[];" parent="I9zTokaMYXYdYf4xdTNR-168" vertex="1" connectable="0">
          <mxGeometry x="-0.256" y="2" relative="1" as="geometry">
            <mxPoint x="56" as="offset" />
          </mxGeometry>
        </mxCell>
        <mxCell id="z9N5_klLORQ8Z38rxBgk-1" value="&lt;span style=&quot;font-size: 15px;&quot;&gt;* Curr Add&lt;/span&gt;" style="text;html=1;align=center;verticalAlign=middle;whiteSpace=wrap;rounded=0;" parent="1" vertex="1">
          <mxGeometry x="2162.9" y="1121.75" width="93" height="30" as="geometry" />
        </mxCell>
        <mxCell id="z9N5_klLORQ8Z38rxBgk-2" value="" style="rounded=1;whiteSpace=wrap;html=1;" parent="1" vertex="1">
          <mxGeometry x="2276.9" y="1128.75" width="85" height="35" as="geometry" />
        </mxCell>
        <mxCell id="z9N5_klLORQ8Z38rxBgk-3" value="&lt;span style=&quot;font-size: 15px;&quot;&gt;* Cur Add&lt;/span&gt;" style="text;html=1;align=center;verticalAlign=middle;whiteSpace=wrap;rounded=0;" parent="1" vertex="1">
          <mxGeometry x="2373.14" y="1124.25" width="93" height="30" as="geometry" />
        </mxCell>
        <mxCell id="z9N5_klLORQ8Z38rxBgk-4" value="" style="rounded=1;whiteSpace=wrap;html=1;" parent="1" vertex="1">
          <mxGeometry x="2487.14" y="1131.25" width="85" height="35" as="geometry" />
        </mxCell>
        <mxCell id="z9N5_klLORQ8Z38rxBgk-5" value="&lt;span style=&quot;font-size: 15px;&quot;&gt;* Cur Add&lt;/span&gt;" style="text;html=1;align=center;verticalAlign=middle;whiteSpace=wrap;rounded=0;" parent="1" vertex="1">
          <mxGeometry x="2593.14" y="1124.25" width="93" height="30" as="geometry" />
        </mxCell>
        <mxCell id="z9N5_klLORQ8Z38rxBgk-6" value="" style="rounded=1;whiteSpace=wrap;html=1;" parent="1" vertex="1">
          <mxGeometry x="2707.14" y="1131.25" width="85" height="35" as="geometry" />
        </mxCell>
        <mxCell id="_6LgRc_EfCftO7fttyzY-1" value="&lt;span&gt;&lt;/span&gt;" style="rounded=0;whiteSpace=wrap;html=1;" vertex="1" parent="1">
          <mxGeometry x="3750" y="80" width="570" height="400" as="geometry" />
        </mxCell>
        <mxCell id="_6LgRc_EfCftO7fttyzY-2" value="" style="endArrow=none;html=1;rounded=0;exitX=-0.002;exitY=0.121;exitDx=0;exitDy=0;entryX=0.998;entryY=0.125;entryDx=0;entryDy=0;entryPerimeter=0;exitPerimeter=0;" edge="1" parent="1" source="_6LgRc_EfCftO7fttyzY-1" target="_6LgRc_EfCftO7fttyzY-1">
          <mxGeometry width="50" height="50" relative="1" as="geometry">
            <mxPoint x="4070" y="570" as="sourcePoint" />
            <mxPoint x="4120" y="520" as="targetPoint" />
          </mxGeometry>
        </mxCell>
        <mxCell id="_6LgRc_EfCftO7fttyzY-19" value="" style="edgeStyle=orthogonalEdgeStyle;rounded=0;orthogonalLoop=1;jettySize=auto;html=1;" edge="1" parent="1" source="_6LgRc_EfCftO7fttyzY-3" target="_6LgRc_EfCftO7fttyzY-15">
          <mxGeometry relative="1" as="geometry" />
        </mxCell>
        <mxCell id="_6LgRc_EfCftO7fttyzY-3" value="&lt;div style=&quot;text-align: left;&quot;&gt;&lt;span style=&quot;font-size: 16px; white-space-collapse: preserve;&quot;&gt;&lt;b&gt;Select State&lt;/b&gt;&lt;/span&gt;&lt;/div&gt;" style="text;html=1;align=center;verticalAlign=middle;whiteSpace=wrap;rounded=0;" vertex="1" parent="1">
          <mxGeometry x="3962.5" y="152" width="160" height="80" as="geometry" />
        </mxCell>
        <mxCell id="_6LgRc_EfCftO7fttyzY-4" value="&lt;b&gt;&lt;font style=&quot;font-size: 17px;&quot;&gt;Next 1/10&lt;/font&gt;&lt;/b&gt;" style="rounded=1;whiteSpace=wrap;html=1;" vertex="1" parent="1">
          <mxGeometry x="4002.5" y="350" width="180" height="30" as="geometry" />
        </mxCell>
        <mxCell id="_6LgRc_EfCftO7fttyzY-5" value="" style="shadow=0;dashed=0;html=1;strokeColor=none;fillColor=#4495D1;labelPosition=center;verticalLabelPosition=bottom;verticalAlign=top;align=center;outlineConnect=0;shape=mxgraph.veeam.globe;" vertex="1" parent="1">
          <mxGeometry x="3975" y="250" width="20" height="20" as="geometry" />
        </mxCell>
        <mxCell id="_6LgRc_EfCftO7fttyzY-6" value="&lt;font style=&quot;font-size: 15px;&quot;&gt;Karnataka&lt;/font&gt;" style="text;html=1;align=center;verticalAlign=middle;whiteSpace=wrap;rounded=0;" vertex="1" parent="1">
          <mxGeometry x="4016" y="245" width="60" height="30" as="geometry" />
        </mxCell>
        <mxCell id="_6LgRc_EfCftO7fttyzY-7" value="" style="shadow=0;dashed=0;html=1;strokeColor=none;fillColor=#4495D1;labelPosition=center;verticalLabelPosition=bottom;verticalAlign=top;align=center;outlineConnect=0;shape=mxgraph.veeam.globe;" vertex="1" parent="1">
          <mxGeometry x="3975" y="297" width="20" height="20" as="geometry" />
        </mxCell>
        <mxCell id="_6LgRc_EfCftO7fttyzY-8" value="Other" style="rounded=1;fillColor=#F1F2F4;strokeColor=none;html=1;whiteSpace=wrap;fontColor=#596780;align=left;fontSize=12;spacingLeft=10;sketch=0;" vertex="1" parent="1">
          <mxGeometry x="4010" y="292" width="65" height="33" as="geometry" />
        </mxCell>
        <mxCell id="_6LgRc_EfCftO7fttyzY-9" value="" style="shape=triangle;direction=south;fillColor=#596780;strokeColor=none;html=1;sketch=0;" vertex="1" parent="_6LgRc_EfCftO7fttyzY-8">
          <mxGeometry x="1" y="0.5" width="12" height="6" relative="1" as="geometry">
            <mxPoint x="-20" y="-3" as="offset" />
          </mxGeometry>
        </mxCell>
        <mxCell id="_6LgRc_EfCftO7fttyzY-10" value="" style="verticalLabelPosition=bottom;verticalAlign=top;html=1;shape=mxgraph.basic.tick" vertex="1" parent="1">
          <mxGeometry x="4110" y="300" width="25" height="20" as="geometry" />
        </mxCell>
        <mxCell id="_6LgRc_EfCftO7fttyzY-11" style="edgeStyle=orthogonalEdgeStyle;rounded=0;orthogonalLoop=1;jettySize=auto;html=1;" edge="1" parent="1" source="_6LgRc_EfCftO7fttyzY-12" target="_6LgRc_EfCftO7fttyzY-5">
          <mxGeometry relative="1" as="geometry">
            <Array as="points">
              <mxPoint x="3615" y="280" />
              <mxPoint x="3985" y="280" />
            </Array>
          </mxGeometry>
        </mxCell>
        <mxCell id="_6LgRc_EfCftO7fttyzY-12" value="&lt;font style=&quot;font-size: 18px;&quot;&gt;1. Choose based on language&lt;/font&gt;" style="text;html=1;align=center;verticalAlign=middle;resizable=0;points=[];autosize=1;strokeColor=none;fillColor=none;" vertex="1" parent="1">
          <mxGeometry x="3485" y="360" width="260" height="40" as="geometry" />
        </mxCell>
        <mxCell id="_6LgRc_EfCftO7fttyzY-13" style="edgeStyle=orthogonalEdgeStyle;rounded=0;orthogonalLoop=1;jettySize=auto;html=1;" edge="1" parent="1" source="_6LgRc_EfCftO7fttyzY-14" target="_6LgRc_EfCftO7fttyzY-7">
          <mxGeometry relative="1" as="geometry">
            <Array as="points">
              <mxPoint x="3705" y="330" />
              <mxPoint x="3985" y="330" />
            </Array>
          </mxGeometry>
        </mxCell>
        <mxCell id="_6LgRc_EfCftO7fttyzY-14" value="&lt;font style=&quot;font-size: 18px;&quot;&gt;2. Give option to choose further&lt;/font&gt;" style="text;html=1;align=center;verticalAlign=middle;resizable=0;points=[];autosize=1;strokeColor=none;fillColor=none;" vertex="1" parent="1">
          <mxGeometry x="3480" y="400" width="270" height="40" as="geometry" />
        </mxCell>
        <mxCell id="_6LgRc_EfCftO7fttyzY-15" value="Each state has a different set of rules." style="whiteSpace=wrap;html=1;shape=mxgraph.basic.oval_callout" vertex="1" parent="1">
          <mxGeometry x="4143.39" y="70" width="200" height="120" as="geometry" />
        </mxCell>
        <mxCell id="_6LgRc_EfCftO7fttyzY-16" value="" style="image;sketch=0;aspect=fixed;html=1;points=[];align=center;fontSize=12;image=img/lib/mscae/Info.svg;" vertex="1" parent="1">
          <mxGeometry x="4125" y="180.5" width="23" height="23" as="geometry" />
        </mxCell>
        <mxCell id="_6LgRc_EfCftO7fttyzY-17" value="&lt;div style=&quot;text-align: left;&quot;&gt;&lt;span style=&quot;white-space-collapse: preserve;&quot;&gt;&lt;b style=&quot;&quot;&gt;&lt;font style=&quot;font-size: 18px;&quot;&gt;Who is filling : Tenant&lt;/font&gt;&lt;/b&gt;&lt;/span&gt;&lt;/div&gt;" style="text;html=1;align=center;verticalAlign=middle;whiteSpace=wrap;rounded=0;" vertex="1" parent="1">
          <mxGeometry x="3955" y="140" width="220" height="39.5" as="geometry" />
        </mxCell>
        <mxCell id="_6LgRc_EfCftO7fttyzY-18" value="Further sub categorization&lt;div&gt;as needed&lt;/div&gt;" style="text;html=1;align=center;verticalAlign=middle;resizable=0;points=[];autosize=1;strokeColor=none;fillColor=none;" vertex="1" parent="1">
          <mxGeometry x="4205" y="280" width="160" height="40" as="geometry" />
        </mxCell>
        <mxCell id="_6LgRc_EfCftO7fttyzY-20" value="&lt;span&gt;&lt;/span&gt;" style="rounded=0;whiteSpace=wrap;html=1;" vertex="1" parent="1">
          <mxGeometry x="2903.59" y="840" width="698.74" height="540" as="geometry" />
        </mxCell>
        <mxCell id="_6LgRc_EfCftO7fttyzY-21" value="" style="endArrow=none;html=1;rounded=0;exitX=-0.002;exitY=0.121;exitDx=0;exitDy=0;entryX=0.998;entryY=0.125;entryDx=0;entryDy=0;entryPerimeter=0;exitPerimeter=0;" edge="1" parent="1" source="_6LgRc_EfCftO7fttyzY-20" target="_6LgRc_EfCftO7fttyzY-20">
          <mxGeometry width="50" height="50" relative="1" as="geometry">
            <mxPoint x="3229.59" y="1310" as="sourcePoint" />
            <mxPoint x="3279.59" y="1260" as="targetPoint" />
          </mxGeometry>
        </mxCell>
        <mxCell id="_6LgRc_EfCftO7fttyzY-22" value="&lt;b&gt;&lt;font style=&quot;font-size: 17px;&quot;&gt;Next 2/10&lt;/font&gt;&lt;/b&gt;" style="rounded=1;whiteSpace=wrap;html=1;" vertex="1" parent="1">
          <mxGeometry x="3142.09" y="1319" width="180" height="30" as="geometry" />
        </mxCell>
        <mxCell id="_6LgRc_EfCftO7fttyzY-23" value="&lt;div style=&quot;text-align: left;&quot;&gt;&lt;span style=&quot;white-space-collapse: preserve;&quot;&gt;&lt;b style=&quot;&quot;&gt;&lt;font style=&quot;font-size: 18px;&quot;&gt;Who is filling : Tenant&lt;/font&gt;&lt;/b&gt;&lt;/span&gt;&lt;/div&gt;" style="text;html=1;align=center;verticalAlign=middle;whiteSpace=wrap;rounded=0;" vertex="1" parent="1">
          <mxGeometry x="3148.33" y="920" width="220" height="39.5" as="geometry" />
        </mxCell>
        <mxCell id="_6LgRc_EfCftO7fttyzY-33" value="&lt;span style=&quot;white-space-collapse: preserve;&quot;&gt;&lt;font style=&quot;font-size: 17px;&quot;&gt;&lt;u style=&quot;&quot;&gt;&lt;b style=&quot;&quot;&gt;Tenant Identity : 1&lt;/b&gt;&lt;/u&gt;&lt;/font&gt;&lt;/span&gt;" style="text;html=1;align=center;verticalAlign=middle;whiteSpace=wrap;rounded=0;" vertex="1" parent="1">
          <mxGeometry x="2932.09" y="969.5" width="147" height="39.5" as="geometry" />
        </mxCell>
        <mxCell id="_6LgRc_EfCftO7fttyzY-44" value="&lt;span style=&quot;white-space-collapse: preserve;&quot;&gt;&lt;font style=&quot;font-size: 17px;&quot;&gt;&lt;u style=&quot;&quot;&gt;&lt;b style=&quot;&quot;&gt;Tenant Identity : 2&lt;/b&gt;&lt;/u&gt;&lt;/font&gt;&lt;/span&gt;" style="text;html=1;align=center;verticalAlign=middle;whiteSpace=wrap;rounded=0;" vertex="1" parent="1">
          <mxGeometry x="3142.33" y="972" width="147" height="39.5" as="geometry" />
        </mxCell>
        <mxCell id="_6LgRc_EfCftO7fttyzY-55" value="&lt;span style=&quot;white-space-collapse: preserve;&quot;&gt;&lt;font style=&quot;font-size: 17px;&quot;&gt;&lt;u style=&quot;&quot;&gt;&lt;b style=&quot;&quot;&gt;Tenant Ifentity : 3&lt;/b&gt;&lt;/u&gt;&lt;/font&gt;&lt;/span&gt;" style="text;html=1;align=center;verticalAlign=middle;whiteSpace=wrap;rounded=0;" vertex="1" parent="1">
          <mxGeometry x="3362.33" y="972" width="147" height="39.5" as="geometry" />
        </mxCell>
        <mxCell id="_6LgRc_EfCftO7fttyzY-63" value="&lt;font style=&quot;font-size: 15px;&quot;&gt;Identity Proof&lt;/font&gt;" style="rounded=1;fillColor=#F1F2F4;strokeColor=none;html=1;whiteSpace=wrap;fontColor=#596780;align=left;fontSize=12;spacingLeft=10;sketch=0;" vertex="1" parent="1">
          <mxGeometry x="2965.21" y="1027.5" width="114.79" height="45" as="geometry" />
        </mxCell>
        <mxCell id="_6LgRc_EfCftO7fttyzY-64" value="" style="shape=triangle;direction=south;fillColor=#596780;strokeColor=none;html=1;sketch=0;" vertex="1" parent="_6LgRc_EfCftO7fttyzY-63">
          <mxGeometry x="1" y="0.5" width="12" height="6" relative="1" as="geometry">
            <mxPoint x="-20" y="-3" as="offset" />
          </mxGeometry>
        </mxCell>
        <mxCell id="_6LgRc_EfCftO7fttyzY-65" value="" style="verticalLabelPosition=bottom;html=1;verticalAlign=top;align=center;strokeColor=none;fillColor=#00BEF2;shape=mxgraph.azure.file;pointerEvents=1;" vertex="1" parent="1">
          <mxGeometry x="2934.8" y="1040" width="30.41" height="25" as="geometry" />
        </mxCell>
        <mxCell id="_6LgRc_EfCftO7fttyzY-66" value="&lt;span style=&quot;font-size: 18px;&quot;&gt;AADHAR&lt;br&gt;PAN&lt;br&gt;DL&lt;br&gt;Mobile Bill&lt;br&gt;Gas Bill&lt;/span&gt;" style="rounded=1;whiteSpace=wrap;html=1;strokeWidth=2;fillWeight=4;hachureGap=8;hachureAngle=45;fillColor=#1ba1e2;sketch=1;" vertex="1" parent="1">
          <mxGeometry x="2775" y="1400" width="215" height="130" as="geometry" />
        </mxCell>
        <mxCell id="_6LgRc_EfCftO7fttyzY-67" style="edgeStyle=orthogonalEdgeStyle;rounded=0;orthogonalLoop=1;jettySize=auto;html=1;entryX=0;entryY=0.5;entryDx=0;entryDy=0;entryPerimeter=0;" edge="1" parent="1" source="_6LgRc_EfCftO7fttyzY-66" target="_6LgRc_EfCftO7fttyzY-65">
          <mxGeometry relative="1" as="geometry" />
        </mxCell>
        <mxCell id="_6LgRc_EfCftO7fttyzY-69" value="&lt;font style=&quot;font-size: 15px;&quot;&gt;Identity Proof&lt;/font&gt;" style="rounded=1;fillColor=#F1F2F4;strokeColor=none;html=1;whiteSpace=wrap;fontColor=#596780;align=left;fontSize=12;spacingLeft=10;sketch=0;" vertex="1" parent="1">
          <mxGeometry x="3172.5" y="1030" width="114.79" height="45" as="geometry" />
        </mxCell>
        <mxCell id="_6LgRc_EfCftO7fttyzY-70" value="" style="shape=triangle;direction=south;fillColor=#596780;strokeColor=none;html=1;sketch=0;" vertex="1" parent="_6LgRc_EfCftO7fttyzY-69">
          <mxGeometry x="1" y="0.5" width="12" height="6" relative="1" as="geometry">
            <mxPoint x="-20" y="-3" as="offset" />
          </mxGeometry>
        </mxCell>
        <mxCell id="_6LgRc_EfCftO7fttyzY-71" value="" style="verticalLabelPosition=bottom;html=1;verticalAlign=top;align=center;strokeColor=none;fillColor=#00BEF2;shape=mxgraph.azure.file;pointerEvents=1;" vertex="1" parent="1">
          <mxGeometry x="3142.09" y="1042.5" width="30.41" height="25" as="geometry" />
        </mxCell>
        <mxCell id="_6LgRc_EfCftO7fttyzY-72" value="&lt;font style=&quot;font-size: 15px;&quot;&gt;Identity Proof&lt;/font&gt;" style="rounded=1;fillColor=#F1F2F4;strokeColor=none;html=1;whiteSpace=wrap;fontColor=#596780;align=left;fontSize=12;spacingLeft=10;sketch=0;" vertex="1" parent="1">
          <mxGeometry x="3388.67" y="1032.5" width="114.79" height="45" as="geometry" />
        </mxCell>
        <mxCell id="_6LgRc_EfCftO7fttyzY-73" value="" style="shape=triangle;direction=south;fillColor=#596780;strokeColor=none;html=1;sketch=0;" vertex="1" parent="_6LgRc_EfCftO7fttyzY-72">
          <mxGeometry x="1" y="0.5" width="12" height="6" relative="1" as="geometry">
            <mxPoint x="-20" y="-3" as="offset" />
          </mxGeometry>
        </mxCell>
        <mxCell id="_6LgRc_EfCftO7fttyzY-74" value="" style="verticalLabelPosition=bottom;html=1;verticalAlign=top;align=center;strokeColor=none;fillColor=#00BEF2;shape=mxgraph.azure.file;pointerEvents=1;" vertex="1" parent="1">
          <mxGeometry x="3358.26" y="1045" width="30.41" height="25" as="geometry" />
        </mxCell>
        <mxCell id="_6LgRc_EfCftO7fttyzY-75" value="" style="strokeWidth=6;html=1;shape=mxgraph.flowchart.annotation_1;align=left;pointerEvents=1;rotation=90;" vertex="1" parent="1">
          <mxGeometry x="2410" y="-1100" width="50" height="3820" as="geometry" />
        </mxCell>
        <mxCell id="_6LgRc_EfCftO7fttyzY-76" value="&lt;font style=&quot;font-size: 50px;&quot;&gt;Tenant &lt;b style=&quot;&quot;&gt;&lt;font style=&quot;&quot;&gt;Information&lt;/font&gt;&lt;/b&gt;&lt;/font&gt;" style="text;html=1;align=center;verticalAlign=middle;whiteSpace=wrap;rounded=0;" vertex="1" parent="1">
          <mxGeometry x="1973.38" y="710" width="766.76" height="30" as="geometry" />
        </mxCell>
        <mxCell id="_6LgRc_EfCftO7fttyzY-77" value="&lt;span style=&quot;font-size: 15px;&quot;&gt;Pic&lt;/span&gt;" style="text;html=1;align=center;verticalAlign=middle;whiteSpace=wrap;rounded=0;" vertex="1" parent="1">
          <mxGeometry x="2988.38" y="1090" width="34.41" height="30" as="geometry" />
        </mxCell>
        <mxCell id="_6LgRc_EfCftO7fttyzY-81" value="&lt;span style=&quot;font-size: 15px;&quot;&gt;Browse&lt;/span&gt;" style="text;html=1;align=center;verticalAlign=middle;whiteSpace=wrap;rounded=0;" vertex="1" parent="1">
          <mxGeometry x="3213.06" y="1095" width="80" height="30" as="geometry" />
        </mxCell>
        <mxCell id="_6LgRc_EfCftO7fttyzY-82" value="&lt;span style=&quot;font-size: 15px;&quot;&gt;Browse&lt;/span&gt;" style="text;html=1;align=center;verticalAlign=middle;whiteSpace=wrap;rounded=0;" vertex="1" parent="1">
          <mxGeometry x="3423.46" y="1095" width="80" height="30" as="geometry" />
        </mxCell>
        <mxCell id="_6LgRc_EfCftO7fttyzY-83" value="" style="shape=image;html=1;verticalAlign=top;verticalLabelPosition=bottom;labelBackgroundColor=#ffffff;imageAspect=0;aspect=fixed;image=https://cdn1.iconfinder.com/data/icons/user-pictures/100/girl-128.png" vertex="1" parent="1">
          <mxGeometry x="2932.09" y="1091.5" width="28.5" height="28.5" as="geometry" />
        </mxCell>
        <mxCell id="_6LgRc_EfCftO7fttyzY-84" value="" style="sketch=0;pointerEvents=1;shadow=0;dashed=0;html=1;strokeColor=none;fillColor=#005F4B;labelPosition=center;verticalLabelPosition=bottom;verticalAlign=top;align=center;outlineConnect=0;shape=mxgraph.veeam2.file_browser;" vertex="1" parent="1">
          <mxGeometry x="3051.09" y="1090.75" width="28.000000000000004" height="28.000000000000004" as="geometry" />
        </mxCell>
        <mxCell id="_6LgRc_EfCftO7fttyzY-85" value="&lt;span style=&quot;font-size: 15px;&quot;&gt;* Per Add&lt;/span&gt;" style="text;html=1;align=center;verticalAlign=middle;whiteSpace=wrap;rounded=0;" vertex="1" parent="1">
          <mxGeometry x="2160.9" y="1176.25" width="93" height="30" as="geometry" />
        </mxCell>
        <mxCell id="_6LgRc_EfCftO7fttyzY-86" value="" style="rounded=1;whiteSpace=wrap;html=1;" vertex="1" parent="1">
          <mxGeometry x="2274.9" y="1183.25" width="85" height="35" as="geometry" />
        </mxCell>
        <mxCell id="_6LgRc_EfCftO7fttyzY-87" value="&lt;span style=&quot;font-size: 15px;&quot;&gt;* Per Add&lt;/span&gt;" style="text;html=1;align=center;verticalAlign=middle;whiteSpace=wrap;rounded=0;" vertex="1" parent="1">
          <mxGeometry x="2371.14" y="1178.75" width="93" height="30" as="geometry" />
        </mxCell>
        <mxCell id="_6LgRc_EfCftO7fttyzY-88" value="" style="rounded=1;whiteSpace=wrap;html=1;" vertex="1" parent="1">
          <mxGeometry x="2485.14" y="1185.75" width="85" height="35" as="geometry" />
        </mxCell>
        <mxCell id="_6LgRc_EfCftO7fttyzY-89" value="&lt;span style=&quot;font-size: 15px;&quot;&gt;* Per Add&lt;/span&gt;" style="text;html=1;align=center;verticalAlign=middle;whiteSpace=wrap;rounded=0;" vertex="1" parent="1">
          <mxGeometry x="2591.14" y="1178.75" width="93" height="30" as="geometry" />
        </mxCell>
        <mxCell id="_6LgRc_EfCftO7fttyzY-90" value="" style="rounded=1;whiteSpace=wrap;html=1;" vertex="1" parent="1">
          <mxGeometry x="2705.14" y="1185.75" width="85" height="35" as="geometry" />
        </mxCell>
        <mxCell id="_6LgRc_EfCftO7fttyzY-91" value="" style="dashed=0;labelPosition=right;align=left;shape=mxgraph.gmdl.checkbox;strokeColor=none;fillColor=#009587;strokeWidth=2;aspect=fixed;sketch=0;html=1;" vertex="1" parent="1">
          <mxGeometry x="2253.9" y="1183.25" width="16" height="16" as="geometry" />
        </mxCell>
        <mxCell id="_6LgRc_EfCftO7fttyzY-92" value="" style="dashed=0;labelPosition=right;align=left;shape=mxgraph.gmdl.checkbox;strokeColor=none;fillColor=#009587;strokeWidth=2;aspect=fixed;sketch=0;html=1;" vertex="1" parent="1">
          <mxGeometry x="2464.14" y="1185.75" width="16" height="16" as="geometry" />
        </mxCell>
        <mxCell id="_6LgRc_EfCftO7fttyzY-93" value="" style="dashed=0;labelPosition=right;align=left;shape=mxgraph.gmdl.checkbox;strokeColor=none;fillColor=#009587;strokeWidth=2;aspect=fixed;sketch=0;html=1;" vertex="1" parent="1">
          <mxGeometry x="2680" y="1190" width="16" height="16" as="geometry" />
        </mxCell>
        <mxCell id="_6LgRc_EfCftO7fttyzY-95" style="edgeStyle=orthogonalEdgeStyle;rounded=0;orthogonalLoop=1;jettySize=auto;html=1;entryX=1;entryY=1;entryDx=0;entryDy=0;" edge="1" parent="1" source="_6LgRc_EfCftO7fttyzY-94" target="_6LgRc_EfCftO7fttyzY-85">
          <mxGeometry relative="1" as="geometry" />
        </mxCell>
        <mxCell id="_6LgRc_EfCftO7fttyzY-94" value="&lt;span style=&quot;font-size: 18px;&quot;&gt;Check if both are same&lt;/span&gt;" style="rounded=1;whiteSpace=wrap;html=1;strokeWidth=2;fillWeight=4;hachureGap=8;hachureAngle=45;fillColor=#1ba1e2;sketch=1;" vertex="1" parent="1">
          <mxGeometry x="2201.9" y="1419" width="120" height="60" as="geometry" />
        </mxCell>
        <mxCell id="_6LgRc_EfCftO7fttyzY-125" value="&lt;span&gt;&lt;/span&gt;" style="rounded=0;whiteSpace=wrap;html=1;" vertex="1" parent="1">
          <mxGeometry x="556.2600000000002" y="1828" width="698.74" height="540" as="geometry" />
        </mxCell>
        <mxCell id="_6LgRc_EfCftO7fttyzY-126" value="" style="endArrow=none;html=1;rounded=0;exitX=-0.002;exitY=0.121;exitDx=0;exitDy=0;entryX=0.998;entryY=0.125;entryDx=0;entryDy=0;entryPerimeter=0;exitPerimeter=0;" edge="1" parent="1" source="_6LgRc_EfCftO7fttyzY-125" target="_6LgRc_EfCftO7fttyzY-125">
          <mxGeometry width="50" height="50" relative="1" as="geometry">
            <mxPoint x="876.2600000000002" y="2298" as="sourcePoint" />
            <mxPoint x="926.2600000000002" y="2248" as="targetPoint" />
          </mxGeometry>
        </mxCell>
        <mxCell id="_6LgRc_EfCftO7fttyzY-127" value="&lt;b&gt;&lt;font style=&quot;font-size: 17px;&quot;&gt;Next 2/10&lt;/font&gt;&lt;/b&gt;" style="rounded=1;whiteSpace=wrap;html=1;" vertex="1" parent="1">
          <mxGeometry x="788.7600000000002" y="2307" width="180" height="30" as="geometry" />
        </mxCell>
        <mxCell id="_6LgRc_EfCftO7fttyzY-128" value="&lt;div style=&quot;text-align: left;&quot;&gt;&lt;span style=&quot;white-space-collapse: preserve;&quot;&gt;&lt;b style=&quot;&quot;&gt;&lt;font style=&quot;font-size: 18px;&quot;&gt;Who is filling : Tenant&lt;/font&gt;&lt;/b&gt;&lt;/span&gt;&lt;/div&gt;" style="text;html=1;align=center;verticalAlign=middle;whiteSpace=wrap;rounded=0;" vertex="1" parent="1">
          <mxGeometry x="795" y="1908" width="220" height="39.5" as="geometry" />
        </mxCell>
        <mxCell id="_6LgRc_EfCftO7fttyzY-129" value="&lt;span style=&quot;font-size: 15px;&quot;&gt;How many Owners?&lt;/span&gt;" style="rounded=1;fillColor=#F1F2F4;strokeColor=none;html=1;whiteSpace=wrap;fontColor=#596780;align=left;fontSize=12;spacingLeft=10;sketch=0;" vertex="1" parent="1">
          <mxGeometry x="825" y="2018" width="160" height="45" as="geometry" />
        </mxCell>
        <mxCell id="_6LgRc_EfCftO7fttyzY-130" value="" style="shape=triangle;direction=south;fillColor=#596780;strokeColor=none;html=1;sketch=0;" vertex="1" parent="_6LgRc_EfCftO7fttyzY-129">
          <mxGeometry x="1" y="0.5" width="12" height="6" relative="1" as="geometry">
            <mxPoint x="-20" y="-3" as="offset" />
          </mxGeometry>
        </mxCell>
        <mxCell id="_6LgRc_EfCftO7fttyzY-131" value="" style="verticalLabelPosition=bottom;sketch=0;html=1;fillColor=#282828;strokeColor=none;verticalAlign=top;pointerEvents=1;align=center;shape=mxgraph.cisco_safe.people_places_things_icons.icon1;" vertex="1" parent="1">
          <mxGeometry x="735" y="2015.5" width="46.5" height="50" as="geometry" />
        </mxCell>
        <mxCell id="_6LgRc_EfCftO7fttyzY-132" value="Bachelors" style="swimlane;fontStyle=0;childLayout=stackLayout;horizontal=1;startSize=30;horizontalStack=0;resizeParent=1;resizeParentMax=0;resizeLast=0;collapsible=1;marginBottom=0;whiteSpace=wrap;html=1;" vertex="1" parent="1">
          <mxGeometry x="425" y="2018" width="140" height="90" as="geometry" />
        </mxCell>
        <mxCell id="_6LgRc_EfCftO7fttyzY-133" value="Adult" style="text;strokeColor=none;fillColor=none;align=left;verticalAlign=middle;spacingLeft=4;spacingRight=4;overflow=hidden;points=[[0,0.5],[1,0.5]];portConstraint=eastwest;rotatable=0;whiteSpace=wrap;html=1;" vertex="1" parent="_6LgRc_EfCftO7fttyzY-132">
          <mxGeometry y="30" width="140" height="30" as="geometry" />
        </mxCell>
        <mxCell id="_6LgRc_EfCftO7fttyzY-134" value="Kids" style="text;strokeColor=none;fillColor=none;align=left;verticalAlign=middle;spacingLeft=4;spacingRight=4;overflow=hidden;points=[[0,0.5],[1,0.5]];portConstraint=eastwest;rotatable=0;whiteSpace=wrap;html=1;" vertex="1" parent="_6LgRc_EfCftO7fttyzY-132">
          <mxGeometry y="60" width="140" height="30" as="geometry" />
        </mxCell>
        <mxCell id="_6LgRc_EfCftO7fttyzY-135" style="edgeStyle=orthogonalEdgeStyle;rounded=0;orthogonalLoop=1;jettySize=auto;html=1;entryX=0.439;entryY=1.099;entryDx=0;entryDy=0;entryPerimeter=0;" edge="1" parent="1" source="_6LgRc_EfCftO7fttyzY-133" target="_6LgRc_EfCftO7fttyzY-131">
          <mxGeometry relative="1" as="geometry" />
        </mxCell>
        <mxCell id="_6LgRc_EfCftO7fttyzY-136" value="&lt;span&gt;&lt;/span&gt;" style="rounded=0;whiteSpace=wrap;html=1;" vertex="1" parent="1">
          <mxGeometry x="1343.4" y="1832" width="698.74" height="540" as="geometry" />
        </mxCell>
        <mxCell id="_6LgRc_EfCftO7fttyzY-137" value="" style="endArrow=none;html=1;rounded=0;exitX=-0.002;exitY=0.121;exitDx=0;exitDy=0;entryX=0.998;entryY=0.125;entryDx=0;entryDy=0;entryPerimeter=0;exitPerimeter=0;" edge="1" parent="1" source="_6LgRc_EfCftO7fttyzY-136" target="_6LgRc_EfCftO7fttyzY-136">
          <mxGeometry width="50" height="50" relative="1" as="geometry">
            <mxPoint x="1663.4" y="2302" as="sourcePoint" />
            <mxPoint x="1713.4" y="2252" as="targetPoint" />
          </mxGeometry>
        </mxCell>
        <mxCell id="_6LgRc_EfCftO7fttyzY-138" value="&lt;b&gt;&lt;font style=&quot;font-size: 17px;&quot;&gt;Next 2/10&lt;/font&gt;&lt;/b&gt;" style="rounded=1;whiteSpace=wrap;html=1;" vertex="1" parent="1">
          <mxGeometry x="1575.9" y="2311" width="180" height="30" as="geometry" />
        </mxCell>
        <mxCell id="_6LgRc_EfCftO7fttyzY-139" value="&lt;div style=&quot;text-align: left;&quot;&gt;&lt;span style=&quot;white-space-collapse: preserve;&quot;&gt;&lt;b style=&quot;&quot;&gt;&lt;font style=&quot;font-size: 18px;&quot;&gt;Who is filling : Tenant&lt;/font&gt;&lt;/b&gt;&lt;/span&gt;&lt;/div&gt;" style="text;html=1;align=center;verticalAlign=middle;whiteSpace=wrap;rounded=0;" vertex="1" parent="1">
          <mxGeometry x="1582.1399999999999" y="1899" width="220" height="39.5" as="geometry" />
        </mxCell>
        <mxCell id="_6LgRc_EfCftO7fttyzY-140" value="&lt;span style=&quot;font-size: 15px;&quot;&gt;* First Name&lt;/span&gt;" style="text;html=1;align=center;verticalAlign=middle;whiteSpace=wrap;rounded=0;" vertex="1" parent="1">
          <mxGeometry x="1378.9" y="1972.5" width="91" height="30" as="geometry" />
        </mxCell>
        <mxCell id="_6LgRc_EfCftO7fttyzY-141" value="" style="rounded=1;whiteSpace=wrap;html=1;" vertex="1" parent="1">
          <mxGeometry x="1490.9" y="1970" width="85" height="35" as="geometry" />
        </mxCell>
        <mxCell id="_6LgRc_EfCftO7fttyzY-142" value="&lt;span style=&quot;font-size: 15px;&quot;&gt;* Last Name&lt;/span&gt;" style="text;html=1;align=center;verticalAlign=middle;whiteSpace=wrap;rounded=0;" vertex="1" parent="1">
          <mxGeometry x="1378.9" y="2015" width="93" height="30" as="geometry" />
        </mxCell>
        <mxCell id="_6LgRc_EfCftO7fttyzY-143" value="" style="rounded=1;whiteSpace=wrap;html=1;" vertex="1" parent="1">
          <mxGeometry x="1490.9" y="2015" width="85" height="35" as="geometry" />
        </mxCell>
        <mxCell id="_6LgRc_EfCftO7fttyzY-144" value="&lt;span style=&quot;font-size: 15px;&quot;&gt;* Email&lt;/span&gt;" style="text;html=1;align=center;verticalAlign=middle;whiteSpace=wrap;rounded=0;" vertex="1" parent="1">
          <mxGeometry x="1389.9" y="2225" width="80" height="30" as="geometry" />
        </mxCell>
        <mxCell id="_6LgRc_EfCftO7fttyzY-145" value="" style="rounded=1;whiteSpace=wrap;html=1;" vertex="1" parent="1">
          <mxGeometry x="1490.9" y="2222.5" width="85" height="35" as="geometry" />
        </mxCell>
        <mxCell id="_6LgRc_EfCftO7fttyzY-146" value="&lt;span style=&quot;font-size: 15px;&quot;&gt;* Phone&lt;/span&gt;" style="text;html=1;align=center;verticalAlign=middle;whiteSpace=wrap;rounded=0;" vertex="1" parent="1">
          <mxGeometry x="1391.9" y="2267.5" width="80" height="30" as="geometry" />
        </mxCell>
        <mxCell id="_6LgRc_EfCftO7fttyzY-147" value="" style="rounded=1;whiteSpace=wrap;html=1;" vertex="1" parent="1">
          <mxGeometry x="1490.9" y="2265" width="85" height="35" as="geometry" />
        </mxCell>
        <mxCell id="_6LgRc_EfCftO7fttyzY-148" value="&lt;span style=&quot;font-size: 15px;&quot;&gt;* Gender&lt;/span&gt;" style="text;html=1;align=center;verticalAlign=middle;whiteSpace=wrap;rounded=0;" vertex="1" parent="1">
          <mxGeometry x="1376.9" y="2065" width="93" height="30" as="geometry" />
        </mxCell>
        <mxCell id="_6LgRc_EfCftO7fttyzY-149" value="&lt;span style=&quot;white-space-collapse: preserve;&quot;&gt;&lt;font style=&quot;font-size: 17px;&quot;&gt;&lt;u style=&quot;&quot;&gt;&lt;b style=&quot;&quot;&gt;Owner Details : 1&lt;/b&gt;&lt;/u&gt;&lt;/font&gt;&lt;/span&gt;" style="text;html=1;align=center;verticalAlign=middle;whiteSpace=wrap;rounded=0;" vertex="1" parent="1">
          <mxGeometry x="1371.9" y="1930.5" width="147" height="39.5" as="geometry" />
        </mxCell>
        <mxCell id="_6LgRc_EfCftO7fttyzY-150" value="" style="rounded=1;whiteSpace=wrap;html=1;" vertex="1" parent="1">
          <mxGeometry x="1490.9" y="2072" width="85" height="35" as="geometry" />
        </mxCell>
        <mxCell id="_6LgRc_EfCftO7fttyzY-151" value="&lt;span style=&quot;font-size: 15px;&quot;&gt;* First Name&lt;/span&gt;" style="text;html=1;align=center;verticalAlign=middle;whiteSpace=wrap;rounded=0;" vertex="1" parent="1">
          <mxGeometry x="1589.1399999999999" y="1975" width="91" height="30" as="geometry" />
        </mxCell>
        <mxCell id="_6LgRc_EfCftO7fttyzY-152" value="" style="rounded=1;whiteSpace=wrap;html=1;" vertex="1" parent="1">
          <mxGeometry x="1701.1399999999999" y="1972.5" width="85" height="35" as="geometry" />
        </mxCell>
        <mxCell id="_6LgRc_EfCftO7fttyzY-153" value="&lt;span style=&quot;font-size: 15px;&quot;&gt;* Last Name&lt;/span&gt;" style="text;html=1;align=center;verticalAlign=middle;whiteSpace=wrap;rounded=0;" vertex="1" parent="1">
          <mxGeometry x="1589.1399999999999" y="2017.5" width="93" height="30" as="geometry" />
        </mxCell>
        <mxCell id="_6LgRc_EfCftO7fttyzY-154" value="" style="rounded=1;whiteSpace=wrap;html=1;" vertex="1" parent="1">
          <mxGeometry x="1701.1399999999999" y="2017.5" width="85" height="35" as="geometry" />
        </mxCell>
        <mxCell id="_6LgRc_EfCftO7fttyzY-155" value="&lt;span style=&quot;font-size: 15px;&quot;&gt;* Email&lt;/span&gt;" style="text;html=1;align=center;verticalAlign=middle;whiteSpace=wrap;rounded=0;" vertex="1" parent="1">
          <mxGeometry x="1600.1399999999999" y="2227.5" width="80" height="30" as="geometry" />
        </mxCell>
        <mxCell id="_6LgRc_EfCftO7fttyzY-156" value="" style="rounded=1;whiteSpace=wrap;html=1;" vertex="1" parent="1">
          <mxGeometry x="1701.1399999999999" y="2225" width="85" height="35" as="geometry" />
        </mxCell>
        <mxCell id="_6LgRc_EfCftO7fttyzY-157" value="&lt;span style=&quot;font-size: 15px;&quot;&gt;* Phone&lt;/span&gt;" style="text;html=1;align=center;verticalAlign=middle;whiteSpace=wrap;rounded=0;" vertex="1" parent="1">
          <mxGeometry x="1602.1399999999999" y="2270" width="80" height="30" as="geometry" />
        </mxCell>
        <mxCell id="_6LgRc_EfCftO7fttyzY-158" value="" style="rounded=1;whiteSpace=wrap;html=1;" vertex="1" parent="1">
          <mxGeometry x="1701.1399999999999" y="2267.5" width="85" height="35" as="geometry" />
        </mxCell>
        <mxCell id="_6LgRc_EfCftO7fttyzY-159" value="&lt;span style=&quot;font-size: 15px;&quot;&gt;* Gender&lt;/span&gt;" style="text;html=1;align=center;verticalAlign=middle;whiteSpace=wrap;rounded=0;" vertex="1" parent="1">
          <mxGeometry x="1587.1399999999999" y="2067.5" width="93" height="30" as="geometry" />
        </mxCell>
        <mxCell id="_6LgRc_EfCftO7fttyzY-160" value="&lt;span style=&quot;white-space-collapse: preserve;&quot;&gt;&lt;font style=&quot;font-size: 17px;&quot;&gt;&lt;u style=&quot;&quot;&gt;&lt;b style=&quot;&quot;&gt;Owner Details : 2&lt;/b&gt;&lt;/u&gt;&lt;/font&gt;&lt;/span&gt;" style="text;html=1;align=center;verticalAlign=middle;whiteSpace=wrap;rounded=0;" vertex="1" parent="1">
          <mxGeometry x="1582.1399999999999" y="1933" width="147" height="39.5" as="geometry" />
        </mxCell>
        <mxCell id="_6LgRc_EfCftO7fttyzY-161" value="" style="rounded=1;whiteSpace=wrap;html=1;" vertex="1" parent="1">
          <mxGeometry x="1701.1399999999999" y="2074.5" width="85" height="35" as="geometry" />
        </mxCell>
        <mxCell id="_6LgRc_EfCftO7fttyzY-162" value="&lt;span style=&quot;font-size: 15px;&quot;&gt;* First Name&lt;/span&gt;" style="text;html=1;align=center;verticalAlign=middle;whiteSpace=wrap;rounded=0;" vertex="1" parent="1">
          <mxGeometry x="1809.1399999999999" y="1975" width="91" height="30" as="geometry" />
        </mxCell>
        <mxCell id="_6LgRc_EfCftO7fttyzY-163" value="" style="rounded=1;whiteSpace=wrap;html=1;" vertex="1" parent="1">
          <mxGeometry x="1921.1399999999999" y="1972.5" width="85" height="35" as="geometry" />
        </mxCell>
        <mxCell id="_6LgRc_EfCftO7fttyzY-164" value="&lt;span style=&quot;font-size: 15px;&quot;&gt;* Last Name&lt;/span&gt;" style="text;html=1;align=center;verticalAlign=middle;whiteSpace=wrap;rounded=0;" vertex="1" parent="1">
          <mxGeometry x="1809.1399999999999" y="2017.5" width="93" height="30" as="geometry" />
        </mxCell>
        <mxCell id="_6LgRc_EfCftO7fttyzY-165" value="" style="rounded=1;whiteSpace=wrap;html=1;" vertex="1" parent="1">
          <mxGeometry x="1921.1399999999999" y="2017.5" width="85" height="35" as="geometry" />
        </mxCell>
        <mxCell id="_6LgRc_EfCftO7fttyzY-166" value="&lt;span style=&quot;font-size: 15px;&quot;&gt;* Email&lt;/span&gt;" style="text;html=1;align=center;verticalAlign=middle;whiteSpace=wrap;rounded=0;" vertex="1" parent="1">
          <mxGeometry x="1820.1399999999999" y="2227.5" width="80" height="30" as="geometry" />
        </mxCell>
        <mxCell id="_6LgRc_EfCftO7fttyzY-167" value="" style="rounded=1;whiteSpace=wrap;html=1;" vertex="1" parent="1">
          <mxGeometry x="1921.1399999999999" y="2225" width="85" height="35" as="geometry" />
        </mxCell>
        <mxCell id="_6LgRc_EfCftO7fttyzY-168" value="&lt;span style=&quot;font-size: 15px;&quot;&gt;* Phone&lt;/span&gt;" style="text;html=1;align=center;verticalAlign=middle;whiteSpace=wrap;rounded=0;" vertex="1" parent="1">
          <mxGeometry x="1822.1399999999999" y="2270" width="80" height="30" as="geometry" />
        </mxCell>
        <mxCell id="_6LgRc_EfCftO7fttyzY-169" value="" style="rounded=1;whiteSpace=wrap;html=1;" vertex="1" parent="1">
          <mxGeometry x="1921.1399999999999" y="2267.5" width="85" height="35" as="geometry" />
        </mxCell>
        <mxCell id="_6LgRc_EfCftO7fttyzY-170" value="&lt;span style=&quot;font-size: 15px;&quot;&gt;* Gender&lt;/span&gt;" style="text;html=1;align=center;verticalAlign=middle;whiteSpace=wrap;rounded=0;" vertex="1" parent="1">
          <mxGeometry x="1807.1399999999999" y="2067.5" width="93" height="30" as="geometry" />
        </mxCell>
        <mxCell id="_6LgRc_EfCftO7fttyzY-171" value="&lt;span style=&quot;white-space-collapse: preserve;&quot;&gt;&lt;font style=&quot;font-size: 17px;&quot;&gt;&lt;u style=&quot;&quot;&gt;&lt;b style=&quot;&quot;&gt;Owner Details : 3&lt;/b&gt;&lt;/u&gt;&lt;/font&gt;&lt;/span&gt;" style="text;html=1;align=center;verticalAlign=middle;whiteSpace=wrap;rounded=0;" vertex="1" parent="1">
          <mxGeometry x="1802.1399999999999" y="1933" width="147" height="39.5" as="geometry" />
        </mxCell>
        <mxCell id="_6LgRc_EfCftO7fttyzY-172" value="" style="rounded=1;whiteSpace=wrap;html=1;" vertex="1" parent="1">
          <mxGeometry x="1921.1399999999999" y="2074.5" width="85" height="35" as="geometry" />
        </mxCell>
        <mxCell id="_6LgRc_EfCftO7fttyzY-173" style="edgeStyle=orthogonalEdgeStyle;rounded=0;orthogonalLoop=1;jettySize=auto;html=1;entryX=0;entryY=0;entryDx=0;entryDy=0;" edge="1" parent="1" target="_6LgRc_EfCftO7fttyzY-146">
          <mxGeometry relative="1" as="geometry">
            <mxPoint x="1342" y="2442" as="sourcePoint" />
          </mxGeometry>
        </mxCell>
        <mxCell id="_6LgRc_EfCftO7fttyzY-174" value="&lt;font style=&quot;font-size: 18px;&quot;&gt;Any of these is required&lt;/font&gt;" style="rounded=1;whiteSpace=wrap;html=1;strokeWidth=2;fillWeight=4;hachureGap=8;hachureAngle=45;fillColor=#1ba1e2;sketch=1;" vertex="1" parent="1">
          <mxGeometry x="1223.4" y="2411" width="120" height="60" as="geometry" />
        </mxCell>
        <mxCell id="_6LgRc_EfCftO7fttyzY-175" value="&lt;span style=&quot;font-size: 15px;&quot;&gt;* Curr Add&lt;/span&gt;" style="text;html=1;align=center;verticalAlign=middle;whiteSpace=wrap;rounded=0;" vertex="1" parent="1">
          <mxGeometry x="1371.9" y="2113.75" width="93" height="30" as="geometry" />
        </mxCell>
        <mxCell id="_6LgRc_EfCftO7fttyzY-176" value="" style="rounded=1;whiteSpace=wrap;html=1;" vertex="1" parent="1">
          <mxGeometry x="1485.9" y="2120.75" width="85" height="35" as="geometry" />
        </mxCell>
        <mxCell id="_6LgRc_EfCftO7fttyzY-177" value="&lt;span style=&quot;font-size: 15px;&quot;&gt;* Cur Add&lt;/span&gt;" style="text;html=1;align=center;verticalAlign=middle;whiteSpace=wrap;rounded=0;" vertex="1" parent="1">
          <mxGeometry x="1582.1399999999999" y="2116.25" width="93" height="30" as="geometry" />
        </mxCell>
        <mxCell id="_6LgRc_EfCftO7fttyzY-178" value="" style="rounded=1;whiteSpace=wrap;html=1;" vertex="1" parent="1">
          <mxGeometry x="1696.1399999999999" y="2123.25" width="85" height="35" as="geometry" />
        </mxCell>
        <mxCell id="_6LgRc_EfCftO7fttyzY-179" value="&lt;span style=&quot;font-size: 15px;&quot;&gt;* Cur Add&lt;/span&gt;" style="text;html=1;align=center;verticalAlign=middle;whiteSpace=wrap;rounded=0;" vertex="1" parent="1">
          <mxGeometry x="1802.1399999999999" y="2116.25" width="93" height="30" as="geometry" />
        </mxCell>
        <mxCell id="_6LgRc_EfCftO7fttyzY-180" value="" style="rounded=1;whiteSpace=wrap;html=1;" vertex="1" parent="1">
          <mxGeometry x="1916.1399999999999" y="2123.25" width="85" height="35" as="geometry" />
        </mxCell>
        <mxCell id="_6LgRc_EfCftO7fttyzY-181" value="&lt;span&gt;&lt;/span&gt;" style="rounded=0;whiteSpace=wrap;html=1;" vertex="1" parent="1">
          <mxGeometry x="2112.59" y="1832" width="698.74" height="540" as="geometry" />
        </mxCell>
        <mxCell id="_6LgRc_EfCftO7fttyzY-182" value="" style="endArrow=none;html=1;rounded=0;exitX=-0.002;exitY=0.121;exitDx=0;exitDy=0;entryX=0.998;entryY=0.125;entryDx=0;entryDy=0;entryPerimeter=0;exitPerimeter=0;" edge="1" parent="1" source="_6LgRc_EfCftO7fttyzY-181" target="_6LgRc_EfCftO7fttyzY-181">
          <mxGeometry width="50" height="50" relative="1" as="geometry">
            <mxPoint x="2438.59" y="2302" as="sourcePoint" />
            <mxPoint x="2488.59" y="2252" as="targetPoint" />
          </mxGeometry>
        </mxCell>
        <mxCell id="_6LgRc_EfCftO7fttyzY-183" value="&lt;b&gt;&lt;font style=&quot;font-size: 17px;&quot;&gt;Next 2/10&lt;/font&gt;&lt;/b&gt;" style="rounded=1;whiteSpace=wrap;html=1;" vertex="1" parent="1">
          <mxGeometry x="2351.09" y="2311" width="180" height="30" as="geometry" />
        </mxCell>
        <mxCell id="_6LgRc_EfCftO7fttyzY-184" value="&lt;div style=&quot;text-align: left;&quot;&gt;&lt;span style=&quot;white-space-collapse: preserve;&quot;&gt;&lt;b style=&quot;&quot;&gt;&lt;font style=&quot;font-size: 18px;&quot;&gt;Who is filling : Tenant&lt;/font&gt;&lt;/b&gt;&lt;/span&gt;&lt;/div&gt;" style="text;html=1;align=center;verticalAlign=middle;whiteSpace=wrap;rounded=0;" vertex="1" parent="1">
          <mxGeometry x="2357.33" y="1912" width="220" height="39.5" as="geometry" />
        </mxCell>
        <mxCell id="_6LgRc_EfCftO7fttyzY-185" value="&lt;span style=&quot;white-space-collapse: preserve;&quot;&gt;&lt;font style=&quot;font-size: 17px;&quot;&gt;&lt;u style=&quot;&quot;&gt;&lt;b style=&quot;&quot;&gt;Owner Identity : 1&lt;/b&gt;&lt;/u&gt;&lt;/font&gt;&lt;/span&gt;" style="text;html=1;align=center;verticalAlign=middle;whiteSpace=wrap;rounded=0;" vertex="1" parent="1">
          <mxGeometry x="2141.09" y="1961.5" width="147" height="39.5" as="geometry" />
        </mxCell>
        <mxCell id="_6LgRc_EfCftO7fttyzY-186" value="&lt;span style=&quot;white-space-collapse: preserve;&quot;&gt;&lt;font style=&quot;font-size: 17px;&quot;&gt;&lt;u style=&quot;&quot;&gt;&lt;b style=&quot;&quot;&gt;Owner Identity : 2&lt;/b&gt;&lt;/u&gt;&lt;/font&gt;&lt;/span&gt;" style="text;html=1;align=center;verticalAlign=middle;whiteSpace=wrap;rounded=0;" vertex="1" parent="1">
          <mxGeometry x="2351.33" y="1964" width="147" height="39.5" as="geometry" />
        </mxCell>
        <mxCell id="_6LgRc_EfCftO7fttyzY-187" value="&lt;span style=&quot;white-space-collapse: preserve;&quot;&gt;&lt;font style=&quot;font-size: 17px;&quot;&gt;&lt;u style=&quot;&quot;&gt;&lt;b style=&quot;&quot;&gt;Owner Ifentity : 3&lt;/b&gt;&lt;/u&gt;&lt;/font&gt;&lt;/span&gt;" style="text;html=1;align=center;verticalAlign=middle;whiteSpace=wrap;rounded=0;" vertex="1" parent="1">
          <mxGeometry x="2571.33" y="1964" width="147" height="39.5" as="geometry" />
        </mxCell>
        <mxCell id="_6LgRc_EfCftO7fttyzY-188" value="&lt;font style=&quot;font-size: 15px;&quot;&gt;Identity Proof&lt;/font&gt;" style="rounded=1;fillColor=#F1F2F4;strokeColor=none;html=1;whiteSpace=wrap;fontColor=#596780;align=left;fontSize=12;spacingLeft=10;sketch=0;" vertex="1" parent="1">
          <mxGeometry x="2174.21" y="2019.5" width="114.79" height="45" as="geometry" />
        </mxCell>
        <mxCell id="_6LgRc_EfCftO7fttyzY-189" value="" style="shape=triangle;direction=south;fillColor=#596780;strokeColor=none;html=1;sketch=0;" vertex="1" parent="_6LgRc_EfCftO7fttyzY-188">
          <mxGeometry x="1" y="0.5" width="12" height="6" relative="1" as="geometry">
            <mxPoint x="-20" y="-3" as="offset" />
          </mxGeometry>
        </mxCell>
        <mxCell id="_6LgRc_EfCftO7fttyzY-190" value="" style="verticalLabelPosition=bottom;html=1;verticalAlign=top;align=center;strokeColor=none;fillColor=#00BEF2;shape=mxgraph.azure.file;pointerEvents=1;" vertex="1" parent="1">
          <mxGeometry x="2143.8" y="2032" width="30.41" height="25" as="geometry" />
        </mxCell>
        <mxCell id="_6LgRc_EfCftO7fttyzY-191" value="&lt;span style=&quot;font-size: 18px;&quot;&gt;AADHAR&lt;br&gt;PAN&lt;br&gt;DL&lt;br&gt;Mobile Bill&lt;br&gt;Gas Bill&lt;/span&gt;" style="rounded=1;whiteSpace=wrap;html=1;strokeWidth=2;fillWeight=4;hachureGap=8;hachureAngle=45;fillColor=#1ba1e2;sketch=1;" vertex="1" parent="1">
          <mxGeometry x="1984" y="2392" width="215" height="130" as="geometry" />
        </mxCell>
        <mxCell id="_6LgRc_EfCftO7fttyzY-192" style="edgeStyle=orthogonalEdgeStyle;rounded=0;orthogonalLoop=1;jettySize=auto;html=1;entryX=0;entryY=0.5;entryDx=0;entryDy=0;entryPerimeter=0;" edge="1" parent="1" source="_6LgRc_EfCftO7fttyzY-191" target="_6LgRc_EfCftO7fttyzY-190">
          <mxGeometry relative="1" as="geometry" />
        </mxCell>
        <mxCell id="_6LgRc_EfCftO7fttyzY-193" value="&lt;font style=&quot;font-size: 15px;&quot;&gt;Identity Proof&lt;/font&gt;" style="rounded=1;fillColor=#F1F2F4;strokeColor=none;html=1;whiteSpace=wrap;fontColor=#596780;align=left;fontSize=12;spacingLeft=10;sketch=0;" vertex="1" parent="1">
          <mxGeometry x="2381.5" y="2022" width="114.79" height="45" as="geometry" />
        </mxCell>
        <mxCell id="_6LgRc_EfCftO7fttyzY-194" value="" style="shape=triangle;direction=south;fillColor=#596780;strokeColor=none;html=1;sketch=0;" vertex="1" parent="_6LgRc_EfCftO7fttyzY-193">
          <mxGeometry x="1" y="0.5" width="12" height="6" relative="1" as="geometry">
            <mxPoint x="-20" y="-3" as="offset" />
          </mxGeometry>
        </mxCell>
        <mxCell id="_6LgRc_EfCftO7fttyzY-195" value="" style="verticalLabelPosition=bottom;html=1;verticalAlign=top;align=center;strokeColor=none;fillColor=#00BEF2;shape=mxgraph.azure.file;pointerEvents=1;" vertex="1" parent="1">
          <mxGeometry x="2351.09" y="2034.5" width="30.41" height="25" as="geometry" />
        </mxCell>
        <mxCell id="_6LgRc_EfCftO7fttyzY-196" value="&lt;font style=&quot;font-size: 15px;&quot;&gt;Identity Proof&lt;/font&gt;" style="rounded=1;fillColor=#F1F2F4;strokeColor=none;html=1;whiteSpace=wrap;fontColor=#596780;align=left;fontSize=12;spacingLeft=10;sketch=0;" vertex="1" parent="1">
          <mxGeometry x="2597.67" y="2024.5" width="114.79" height="45" as="geometry" />
        </mxCell>
        <mxCell id="_6LgRc_EfCftO7fttyzY-197" value="" style="shape=triangle;direction=south;fillColor=#596780;strokeColor=none;html=1;sketch=0;" vertex="1" parent="_6LgRc_EfCftO7fttyzY-196">
          <mxGeometry x="1" y="0.5" width="12" height="6" relative="1" as="geometry">
            <mxPoint x="-20" y="-3" as="offset" />
          </mxGeometry>
        </mxCell>
        <mxCell id="_6LgRc_EfCftO7fttyzY-198" value="" style="verticalLabelPosition=bottom;html=1;verticalAlign=top;align=center;strokeColor=none;fillColor=#00BEF2;shape=mxgraph.azure.file;pointerEvents=1;" vertex="1" parent="1">
          <mxGeometry x="2567.26" y="2037" width="30.41" height="25" as="geometry" />
        </mxCell>
        <mxCell id="_6LgRc_EfCftO7fttyzY-199" value="" style="strokeWidth=6;html=1;shape=mxgraph.flowchart.annotation_1;align=left;pointerEvents=1;rotation=90;" vertex="1" parent="1">
          <mxGeometry x="2404.25" y="-102.25" width="50" height="3808.5" as="geometry" />
        </mxCell>
        <mxCell id="_6LgRc_EfCftO7fttyzY-200" value="&lt;font style=&quot;font-size: 50px;&quot;&gt;Owner&amp;nbsp;&lt;b style=&quot;&quot;&gt;&lt;font style=&quot;&quot;&gt;Information&lt;/font&gt;&lt;/b&gt;&lt;/font&gt;" style="text;html=1;align=center;verticalAlign=middle;whiteSpace=wrap;rounded=0;" vertex="1" parent="1">
          <mxGeometry x="1936.02" y="1702" width="766.76" height="30" as="geometry" />
        </mxCell>
        <mxCell id="_6LgRc_EfCftO7fttyzY-201" value="&lt;span style=&quot;font-size: 15px;&quot;&gt;Pic&lt;/span&gt;" style="text;html=1;align=center;verticalAlign=middle;whiteSpace=wrap;rounded=0;" vertex="1" parent="1">
          <mxGeometry x="2197.38" y="2082" width="34.41" height="30" as="geometry" />
        </mxCell>
        <mxCell id="_6LgRc_EfCftO7fttyzY-202" value="&lt;span style=&quot;font-size: 15px;&quot;&gt;Browse&lt;/span&gt;" style="text;html=1;align=center;verticalAlign=middle;whiteSpace=wrap;rounded=0;" vertex="1" parent="1">
          <mxGeometry x="2422.06" y="2087" width="80" height="30" as="geometry" />
        </mxCell>
        <mxCell id="_6LgRc_EfCftO7fttyzY-203" value="&lt;span style=&quot;font-size: 15px;&quot;&gt;Browse&lt;/span&gt;" style="text;html=1;align=center;verticalAlign=middle;whiteSpace=wrap;rounded=0;" vertex="1" parent="1">
          <mxGeometry x="2632.46" y="2087" width="80" height="30" as="geometry" />
        </mxCell>
        <mxCell id="_6LgRc_EfCftO7fttyzY-204" value="" style="shape=image;html=1;verticalAlign=top;verticalLabelPosition=bottom;labelBackgroundColor=#ffffff;imageAspect=0;aspect=fixed;image=https://cdn1.iconfinder.com/data/icons/user-pictures/100/girl-128.png" vertex="1" parent="1">
          <mxGeometry x="2141.09" y="2083.5" width="28.5" height="28.5" as="geometry" />
        </mxCell>
        <mxCell id="_6LgRc_EfCftO7fttyzY-205" value="" style="sketch=0;pointerEvents=1;shadow=0;dashed=0;html=1;strokeColor=none;fillColor=#005F4B;labelPosition=center;verticalLabelPosition=bottom;verticalAlign=top;align=center;outlineConnect=0;shape=mxgraph.veeam2.file_browser;" vertex="1" parent="1">
          <mxGeometry x="2260.09" y="2082.75" width="28.000000000000004" height="28.000000000000004" as="geometry" />
        </mxCell>
        <mxCell id="_6LgRc_EfCftO7fttyzY-206" value="&lt;span style=&quot;font-size: 15px;&quot;&gt;* Per Add&lt;/span&gt;" style="text;html=1;align=center;verticalAlign=middle;whiteSpace=wrap;rounded=0;" vertex="1" parent="1">
          <mxGeometry x="1369.9" y="2168.25" width="93" height="30" as="geometry" />
        </mxCell>
        <mxCell id="_6LgRc_EfCftO7fttyzY-207" value="" style="rounded=1;whiteSpace=wrap;html=1;" vertex="1" parent="1">
          <mxGeometry x="1483.9" y="2175.25" width="85" height="35" as="geometry" />
        </mxCell>
        <mxCell id="_6LgRc_EfCftO7fttyzY-208" value="&lt;span style=&quot;font-size: 15px;&quot;&gt;* Per Add&lt;/span&gt;" style="text;html=1;align=center;verticalAlign=middle;whiteSpace=wrap;rounded=0;" vertex="1" parent="1">
          <mxGeometry x="1580.1399999999999" y="2170.75" width="93" height="30" as="geometry" />
        </mxCell>
        <mxCell id="_6LgRc_EfCftO7fttyzY-209" value="" style="rounded=1;whiteSpace=wrap;html=1;" vertex="1" parent="1">
          <mxGeometry x="1694.1399999999999" y="2177.75" width="85" height="35" as="geometry" />
        </mxCell>
        <mxCell id="_6LgRc_EfCftO7fttyzY-210" value="&lt;span style=&quot;font-size: 15px;&quot;&gt;* Per Add&lt;/span&gt;" style="text;html=1;align=center;verticalAlign=middle;whiteSpace=wrap;rounded=0;" vertex="1" parent="1">
          <mxGeometry x="1800.1399999999999" y="2170.75" width="93" height="30" as="geometry" />
        </mxCell>
        <mxCell id="_6LgRc_EfCftO7fttyzY-211" value="" style="rounded=1;whiteSpace=wrap;html=1;" vertex="1" parent="1">
          <mxGeometry x="1914.1399999999999" y="2177.75" width="85" height="35" as="geometry" />
        </mxCell>
        <mxCell id="_6LgRc_EfCftO7fttyzY-212" value="" style="dashed=0;labelPosition=right;align=left;shape=mxgraph.gmdl.checkbox;strokeColor=none;fillColor=#009587;strokeWidth=2;aspect=fixed;sketch=0;html=1;" vertex="1" parent="1">
          <mxGeometry x="1462.9" y="2175.25" width="16" height="16" as="geometry" />
        </mxCell>
        <mxCell id="_6LgRc_EfCftO7fttyzY-213" value="" style="dashed=0;labelPosition=right;align=left;shape=mxgraph.gmdl.checkbox;strokeColor=none;fillColor=#009587;strokeWidth=2;aspect=fixed;sketch=0;html=1;" vertex="1" parent="1">
          <mxGeometry x="1673.1399999999999" y="2177.75" width="16" height="16" as="geometry" />
        </mxCell>
        <mxCell id="_6LgRc_EfCftO7fttyzY-214" value="" style="dashed=0;labelPosition=right;align=left;shape=mxgraph.gmdl.checkbox;strokeColor=none;fillColor=#009587;strokeWidth=2;aspect=fixed;sketch=0;html=1;" vertex="1" parent="1">
          <mxGeometry x="1889" y="2182" width="16" height="16" as="geometry" />
        </mxCell>
        <mxCell id="_6LgRc_EfCftO7fttyzY-215" style="edgeStyle=orthogonalEdgeStyle;rounded=0;orthogonalLoop=1;jettySize=auto;html=1;entryX=1;entryY=1;entryDx=0;entryDy=0;" edge="1" parent="1" source="_6LgRc_EfCftO7fttyzY-216" target="_6LgRc_EfCftO7fttyzY-206">
          <mxGeometry relative="1" as="geometry" />
        </mxCell>
        <mxCell id="_6LgRc_EfCftO7fttyzY-216" value="&lt;span style=&quot;font-size: 18px;&quot;&gt;Check if both are same&lt;/span&gt;" style="rounded=1;whiteSpace=wrap;html=1;strokeWidth=2;fillWeight=4;hachureGap=8;hachureAngle=45;fillColor=#1ba1e2;sketch=1;" vertex="1" parent="1">
          <mxGeometry x="1410.9" y="2411" width="120" height="60" as="geometry" />
        </mxCell>
        <mxCell id="_6LgRc_EfCftO7fttyzY-217" value="" style="strokeWidth=6;html=1;shape=mxgraph.flowchart.annotation_1;align=left;pointerEvents=1;rotation=90;" vertex="1" parent="1">
          <mxGeometry x="2420.5" y="-1932.5" width="50" height="3805" as="geometry" />
        </mxCell>
        <mxCell id="_6LgRc_EfCftO7fttyzY-218" value="&lt;span style=&quot;font-size: 50px;&quot;&gt;Getting Started&lt;/span&gt;" style="text;html=1;align=center;verticalAlign=middle;whiteSpace=wrap;rounded=0;" vertex="1" parent="1">
          <mxGeometry x="1950" y="-130" width="766.76" height="30" as="geometry" />
        </mxCell>
        <mxCell id="_6LgRc_EfCftO7fttyzY-219" value="" style="verticalLabelPosition=bottom;verticalAlign=top;html=1;strokeWidth=6;shape=mxgraph.arrows2.arrow;dy=0.6;dx=40;notch=0;rotation=90;fillColor=light-dark(#000000,#003366);strokeColor=light-dark(#000000,#FFFFFF);" vertex="1" parent="1">
          <mxGeometry x="2242" y="1580" width="100" height="70" as="geometry" />
        </mxCell>
      </root>
    </mxGraphModel>
  </diagram>
</mxfile>
